<svg height="512pt" viewBox="0 0 512 512" width="512pt" xmlns="http://www.w3.org/2000/svg"><path d="m512 256c0 141.386719-114.613281 256-256 256s-256-114.613281-256-256 114.613281-256 256-256 256 114.613281 256 256zm0 0" fill="#f2f2f2"/><path d="m42.464844 397.222656 213.535156-132.398437 213.535156 132.394531c2.761719-4.160156 5.40625-8.40625 7.921875-12.738281l-213.957031-132.65625v-251.707031c-2.492188-.070313-4.992188-.117188-7.5-.117188s-5.007812.046875-7.5.117188v251.707031l-213.957031 132.660156c2.515625 4.328125 5.160156 8.574219 7.921875 12.738281zm0 0" fill="#d9d8d7"/><path d="m427.601562 149.675781-171.601562 90.136719-171.601562-90.136719 171.601562-90.140625zm0 0" fill="#ff6d3b"/><path d="m84.398438 149.675781v212.648438l171.601562 90.140625v-212.652344zm0 0" fill="#e64717"/><path d="m427.601562 149.675781-171.601562 90.136719v212.652344l171.601562-90.140625zm0 0" fill="#f15424"/></svg>