<svg id="Layer_5" enable-background="new 0 0 64 64" height="512" viewBox="0 0 64 64" width="512" xmlns="http://www.w3.org/2000/svg"><path d="m19.646 35.407-.406-1.959 2.283-.474 1.848-4.026 4.338-.897 1.846-4.025 4.334-.894 1.846-4.025 4.337-.896 1.845-4.025 5.028-1.037.405 1.959-4.037.832-1.844 4.025-4.337.896-1.847 4.025-4.334.894-1.846 4.025-4.337.897-1.848 4.025z"/><path d="m56.198 46.592-1.754-.961 1.415-2.583-1.999-3.652 2-3.655-2-3.654 2-3.654-2-3.653 2-3.653-1.501-2.742 1.754-.96 2.027 3.702-2 3.653 2 3.653-2 3.654 2 3.654-2 3.655 2.001 3.652z"/><path d="m37.904 58.178-3.212-2-3.194 1.986-3.905-2.228.99-1.737 2.87 1.637 3.239-2.014 3.212 2 3.217-2 3.216 2 1.348-.837 1.054 1.7-2.402 1.493-3.216-2z"/><path d="m61 10.152h2v43.848h-2z"/><path d="m1.091 20h54.818v1.999h-54.818z" transform="matrix(.784 -.62 .62 .784 -6.881 22.206)"/><path d="m54 19c-4.963 0-9-4.038-9-9s4.037-9 9-9 9 4.038 9 9-4.037 9-9 9zm0-13c-2.205 0-4 1.794-4 4s1.795 4 4 4 4-1.794 4-4-1.795-4-4-4z" fill="#f0bc5e"/><path d="m54 15c-2.757 0-5-2.243-5-5s2.243-5 5-5 5 2.243 5 5-2.243 5-5 5zm0-8c-1.654 0-3 1.346-3 3s1.346 3 3 3 3-1.346 3-3-1.346-3-3-3z"/><path d="m17 61h37v2h-37z"/><path d="m16 63c-8.271 0-15-6.729-15-15s6.729-15 15-15 15 6.729 15 15-6.729 15-15 15zm0-25c-5.514 0-10 4.486-10 10s4.486 10 10 10 10-4.486 10-10-4.486-10-10-10z" fill="#f0bc5e"/><path d="m16 45c-1.654 0-3 1.346-3 3s1.346 3 3 3 3-1.346 3-3-1.346-3-3-3zm0 4c-.552 0-1-.448-1-1s.448-1 1-1 1 .448 1 1-.448 1-1 1z"/><path d="m16 37c-6.065 0-11 4.935-11 11s4.935 11 11 11 11-4.935 11-11-4.935-11-11-11zm9 11c0 .92-.14 1.807-.398 2.643-.959-.51-1.602-1.514-1.602-2.643s.643-2.133 1.602-2.643c.258.836.398 1.723.398 2.643zm-6.357-8.602c-.51.959-1.514 1.602-2.643 1.602s-2.133-.643-2.643-1.602c.836-.258 1.723-.398 2.643-.398s1.807.14 2.643.398zm-9.643 8.602c0 1.129-.643 2.133-1.602 2.643-.258-.836-.398-1.723-.398-2.643s.14-1.807.398-2.643c.959.51 1.602 1.514 1.602 2.643zm4.357 8.602c.51-.959 1.514-1.602 2.643-1.602s2.133.643 2.643 1.602c-.836.258-1.723.398-2.643.398s-1.807-.14-2.643-.398zm7.112-.801c-.826-1.672-2.537-2.801-4.469-2.801s-3.643 1.129-4.469 2.801c-1.384-.796-2.535-1.948-3.331-3.331 1.671-.827 2.8-2.538 2.8-4.47s-1.129-3.643-2.801-4.469c.796-1.384 1.948-2.535 3.331-3.331.827 1.671 2.538 2.8 4.47 2.8s3.643-1.129 4.469-2.801c1.384.796 2.535 1.948 3.331 3.331-1.671.827-2.8 2.538-2.8 4.47s1.129 3.643 2.801 4.469c-.796 1.384-1.948 2.536-3.332 3.332z"/><path d="m54 63c-4.963 0-9-4.037-9-9s4.037-9 9-9 9 4.037 9 9-4.037 9-9 9zm0-13c-2.205 0-4 1.795-4 4s1.795 4 4 4 4-1.795 4-4-1.795-4-4-4z" fill="#f0bc5e"/><path d="m54 59c-2.757 0-5-2.243-5-5s2.243-5 5-5 5 2.243 5 5-2.243 5-5 5zm0-8c-1.654 0-3 1.346-3 3s1.346 3 3 3 3-1.346 3-3-1.346-3-3-3z"/></svg>