<svg id="icons" enable-background="new 0 0 64 64" height="512" viewBox="0 0 64 64" width="512" xmlns="http://www.w3.org/2000/svg"><path d="m47.994 26.01c-.55 0-1 .45-1 1v.99 2 1 2 1 2 1 2 1 2 1 2 3.002 2 1 2 1 2 1c0 .55.45 1 1 1h5.99c.55 0 1-.45 1-1v-1c0-.55 0-1.45 0-2v-1c0-.55 0-1.45 0-2v-1c0-.55 0-1.45 0-2v-3.002c0-.55 0-1.45 0-2v-1c0-.55 0-1.45 0-2v-1c0-.55 0-1.45 0-2v-1c0-.55 0-1.45 0-2v-1c0-.55 0-1.45 0-2v-1c0-.55 0-1.45 0-2v-.99c0-.55-.45-1-1-1z" fill="#ccd1d9"/><path d="m58.984 57v4.99c0 .55-.449 1-1 1h-13.99c-.549 0-1-.45-1-1v-4.99c0-.55.451-1 1-1h3 7.99 3c.551 0 1 .45 1 1z" fill="#e6e9ed"/><path d="m10.016 6.008c-.55 0-1 .45-1 1v1 2 1 4.002 1 2 1 2 1 2 1 2 1 2 1 2 1 2 .98c0 .55.45 1 1 1h5.988c.55 0 1-.45 1-1v-.98c0-.55 0-1.45 0-2v-1c0-.55 0-1.45 0-2v-1c0-.55 0-1.45 0-2v-1c0-.55 0-1.45 0-2v-1c0-.55 0-1.45 0-2v-1c0-.55 0-1.45 0-2v-1c0-.55 0-1.45 0-2v-1c0-.55 0-3.452 0-4.002v-1c0-.55 0-1.45 0-2v-1c0-.55-.45-1-1-1z" fill="#ccd1d9"/><g fill="#e6e9ed"><path d="m21.004 2.01v5c0 .55-.449 1-1 1h-3-7.988-3c-.551 0-1-.45-1-1v-5c0-.55.449-1 1-1h13.988c.551 0 1 .45 1 1z"/><path d="m17.009 18.006h-7.998c-.553 0-1-.447-1-1s.447-1 1-1h7.998c.553 0 1 .447 1 1s-.447 1-1 1z"/><path d="m17.009 21.006h-7.998c-.553 0-1-.447-1-1s.447-1 1-1h7.998c.553 0 1 .447 1 1s-.447 1-1 1z"/><path d="m17.009 24.006h-7.998c-.553 0-1-.447-1-1s.447-1 1-1h7.998c.553 0 1 .447 1 1s-.447 1-1 1z"/><path d="m17.009 27.006h-7.998c-.553 0-1-.447-1-1s.447-1 1-1h7.998c.553 0 1 .447 1 1s-.447 1-1 1z"/><path d="m17.009 30.006h-7.998c-.553 0-1-.447-1-1s.447-1 1-1h7.998c.553 0 1 .447 1 1s-.447 1-1 1z"/><path d="m17.009 33.006h-7.998c-.553 0-1-.447-1-1s.447-1 1-1h7.998c.553 0 1 .447 1 1s-.447 1-1 1z"/><path d="m17.009 36.006h-7.998c-.553 0-1-.447-1-1s.447-1 1-1h7.998c.553 0 1 .447 1 1s-.447 1-1 1z"/><path d="m54.989 45.994h-7.998c-.553 0-1 .447-1 1s.447 1 1 1h7.998c.553 0 1-.447 1-1s-.447-1-1-1z"/><path d="m54.989 42.994h-7.998c-.553 0-1 .447-1 1s.447 1 1 1h7.998c.553 0 1-.447 1-1s-.447-1-1-1z"/><path d="m54.989 39.994h-7.998c-.553 0-1 .447-1 1s.447 1 1 1h7.998c.553 0 1-.447 1-1s-.447-1-1-1z"/><path d="m54.989 36.994h-7.998c-.553 0-1 .447-1 1s.447 1 1 1h7.998c.553 0 1-.447 1-1s-.447-1-1-1z"/><path d="m54.989 33.994h-7.998c-.553 0-1 .447-1 1s.447 1 1 1h7.998c.553 0 1-.447 1-1s-.447-1-1-1z"/><path d="m54.989 30.994h-7.998c-.553 0-1 .447-1 1s.447 1 1 1h7.998c.553 0 1-.447 1-1s-.447-1-1-1z"/><path d="m46.991 29.994h7.998c.553 0 1-.447 1-1s-.447-1-1-1h-7.998c-.553 0-1 .447-1 1s.447 1 1 1z"/></g><path d="m36.023 34.298c-.188-.188-.441-.293-.707-.293h-6.625c-.266 0-.52.105-.707.293l-4.688 4.686c-.188.188-.293.441-.293.707v6.629c0 .266.105.52.293.707l4.688 4.686c.188.188.441.293.707.293h6.625c.266 0 .52-.105.707-.293l4.688-4.686c.188-.188.293-.441.293-.707v-6.63c0-.266-.105-.52-.293-.707zm-4.019 12.712c-2.209 0-4-1.79-4-4s1.791-4 4-4c2.211 0 4 1.79 4 4s-1.789 4-4 4z" fill="#ccd1d9"/><path d="m40.711 16.962-4.688-4.686c-.188-.188-.441-.293-.707-.293h-6.625c-.266 0-.52.105-.707.293l-4.688 4.686c-.188.188-.293.441-.293.707v6.629c0 .266.105.52.293.707l4.688 4.686c.188.188.441.293.707.293h6.625c.266 0 .52-.105.707-.293l4.688-4.686c.188-.188.293-.441.293-.707v-6.629c0-.266-.106-.52-.293-.707zm-8.707 8.017c-2.209 0-4-1.79-4-4 0-2.199 1.791-4 4-4 2.211 0 4 1.801 4 4 0 2.21-1.789 4-4 4z" fill="#ccd1d9"/></svg>