<svg height="512" viewBox="0 0 64 64" width="512" xmlns="http://www.w3.org/2000/svg"><path d="m44 3h-24v3 4 3l3 3h18l3-3v-3-4z" fill="#ffcd00"/><path d="m23 10v-7h-3v10l3 3h3l-2.414-2.414a2 2 0 0 1 -.586-1.414z" fill="#ebbf00"/><path d="m40 51v-8-6h-16v4 10z" fill="#ffdaaa"/><path d="m28 49a2 2 0 0 1 -2-2v-10h-2v14h16v-2z" fill="#ffc477"/><path d="m32 43 2 1v-7h-4v7z" fill="#ff9811"/><path d="m61 56a5 5 0 0 1 -5 5h-48a5 5 0 0 1 0-10h48a5 5 0 0 1 5 5z" fill="#939598"/><path d="m8 58h48a4.984 4.984 0 0 0 4.745-3.5 4.936 4.936 0 0 1 .255 1.5 5 5 0 0 1 -5 5h-48a5 5 0 0 1 -5-5 4.936 4.936 0 0 1 .255-1.5 4.984 4.984 0 0 0 4.745 3.5z" fill="#6d6e71"/><g fill="#ff3051"><circle cx="32" cy="56" r="2"/><circle cx="44" cy="56" r="2"/><circle cx="55" cy="56" r="2"/><circle cx="20" cy="56" r="2"/><circle cx="9" cy="56" r="2"/></g><path d="m3 6h4v4h-4z" fill="#57a4ff"/><path d="m7 6h13v4h-13z" fill="#006df0"/><path d="m57 6h4v4h-4z" fill="#57a4ff"/><path d="m44 6h13v4h-13z" fill="#006df0"/><path d="m40 43h11v8h-11z" fill="#ffc477"/><path d="m42 47v-4h-2v8h11v-2h-7a2 2 0 0 1 -2-2z" fill="#ffb655"/><path d="m24 51v-10h-6v4 6z" fill="#ffb655"/><path d="m22 49a2 2 0 0 1 -2-2v-6h-2v10h6v-2z" fill="#ffa733"/><path d="m12 45h6v6h-6z" fill="#ffb655"/><path d="m14 47v-2h-2v6h6v-2h-2a2 2 0 0 1 -2-2z" fill="#ff9811"/><path d="m50 19h-9a1 1 0 0 1 0-2h9a1 1 0 0 1 0 2z" fill="#2488ff"/><path d="m52 33.142v-14.142a1 1 0 0 0 -2 0v14.142a4 4 0 0 0 -3 3.858 1 1 0 0 0 2 0 2 2 0 0 1 4 0 1 1 0 0 0 2 0 4 4 0 0 0 -3-3.858z" fill="#2488ff"/><path d="m23 19h-10a1 1 0 0 1 0-2h10a1 1 0 0 1 0 2z" fill="#2488ff"/><path d="m14 28.142v-10.142a1 1 0 0 0 -2 0v10.142a4 4 0 0 0 -3 3.858 1 1 0 0 0 2 0 2 2 0 0 1 4 0 1 1 0 0 0 2 0 4 4 0 0 0 -3-3.858z" fill="#2488ff"/><path d="m13 55h3v2h-3z" fill="#ab2300"/><path d="m24 55h4v2h-4z" fill="#ab2300"/><path d="m48 55h3v2h-3z" fill="#ab2300"/><path d="m36 55h4v2h-4z" fill="#ab2300"/><circle cx="51" cy="18" fill="#ff3051" r="2"/><circle cx="13" cy="18" fill="#ff3051" r="2"/><path d="m41 16v4h-3.35a3.228 3.228 0 0 1 -.24.58l2.37 2.37-2.83 2.83-2.37-2.37a3.228 3.228 0 0 1 -.58.24v3.35h-4v-3.35a3.228 3.228 0 0 1 -.58-.24l-2.37 2.37-2.83-2.83 2.37-2.37a3.228 3.228 0 0 1 -.24-.58h-3.35v-4h3.35a3.228 3.228 0 0 1 .24-.58l-2.37-2.37 2.83-2.83 2.37 2.37a3.228 3.228 0 0 1 .58-.24v-3.35h4v3.35a3.228 3.228 0 0 1 .58.24l2.37-2.37 2.83 2.83-2.37 2.37a3.228 3.228 0 0 1 .24.58z" fill="#ffa733"/><circle cx="32" cy="18" fill="#ff3051" r="3"/><circle cx="32" cy="18" fill="#ab2300" r="1"/></svg>