<svg height="479pt" viewBox="0 -73 479.98993 479" width="479pt" xmlns="http://www.w3.org/2000/svg"><path d="m469.847656 54.511719c7.152344 14.46875 10.617188 30.480469 10.089844 46.613281l-51.390625 12.796875c-15.964844-17.257813-41.539063-21.625-62.324219-10.636719-20.789062 10.988282-31.585937 34.578125-26.3125 57.492188 5.269532 22.914062 25.289063 39.414062 48.789063 40.214844v.042968c-1.753907 21.027344-19.328125 37.210938-40.429688 37.21875h-.160156c-11.992187.050782-29.03125.128906-30.691406.179688-6.304688.183594-12.414063-2.191406-16.9375-6.582032-4.523438-4.394531-7.074219-10.433593-7.074219-16.738281v-34.46875h-30.957031c-1.535157 0-2.972657-.757812-3.84375-2.019531-.871094-1.265625-1.066407-2.878906-.519531-4.3125l18.5-48.449219.910156.351563h23.121094c10.15625-.238282 18.269531-8.539063 18.269531-18.695313 0-10.160156-8.113281-18.460937-18.269531-18.695312h-19.070313l-1.929687-.320313c1.421874-8.800781 3.972656-17.382812 7.589843-25.53125l.628907.289063h20.703124c16.597657.003906 30.050782-13.449219 30.046876-30.046875v-22.773438c14.335937-6.738281 30.011718-10.136718 45.851562-9.9375v18.6875c-.003906 19.738282 15.996094 35.738282 35.730469 35.730469h48.839843zm0 0" fill="#e48e66"/><path d="m430.90625 326.59375h-68.117188v-76.941406c-1.675781-6.664063-7.648437-11.355469-14.519531-11.398438 21.101563-.007812 38.675781-16.191406 40.429688-37.21875v-.042968c.589843.03125 1.179687.042968 1.769531.042968 20.617188 0 39.277344-12.207031 47.535156-31.097656 8.257813-18.894531 4.546875-40.882812-9.457031-56.015625l51.390625-12.796875c-.511719 14.621094-4.316406 28.941406-11.128906 41.886719 0 0-11.242188 27.761719-12.332032 39.480469-3.699218 39.78125 0 144.101562 0 144.101562zm-38.476562-54.371094c5.625 0 10.1875-4.5625 10.1875-10.1875 0-5.628906-4.5625-10.191406-10.1875-10.191406-5.628907 0-10.191407 4.5625-10.191407 10.191406-.003906 5.625 4.5625 10.191406 10.191407 10.1875zm48.628906-13.007812c0-5.628906-4.5625-10.191406-10.191406-10.191406-5.628907 0-10.1875 4.5625-10.1875 10.191406 0 5.625 4.558593 10.1875 10.1875 10.1875 5.628906.003906 10.191406-4.558594 10.191406-10.1875zm0 0" fill="#6fe3ff"/><g fill="#f8ec7d"><path d="m469.847656 54.511719-.839844.410156h-48.839843c-19.738281.011719-35.738281-15.992187-35.730469-35.730469v-18.6875c.898438.007813 1.808594.03125 2.699219.058594 37.851562 1.359375 67.882812 23.769531 82.710937 53.949219zm0 0"/><path d="m441.058594 259.214844c0 5.625-4.5625 10.1875-10.191406 10.1875-5.628907 0-10.1875-4.5625-10.1875-10.1875 0-5.628906 4.558593-10.191406 10.1875-10.191406 5.628906 0 10.191406 4.5625 10.191406 10.191406zm0 0"/><path d="m410.246094 178.3125c15.714844-10.632812 20.195312-31.792969 10.144531-47.886719-10.050781-16.089843-31.03125-21.347656-47.480469-11.894531-16.449218 9.453125-22.472656 30.226562-13.632812 47.011719 8.84375 16.785156 29.378906 23.570312 46.480468 15.351562 1.558594-.75 3.058594-1.613281 4.488282-2.582031zm9.339844 13.769531c-8.582032 5.851563-18.730469 8.96875-29.117188 8.953125-.589844 0-1.179688-.011718-1.769531-.042968-25.492188-.871094-46.570313-20.148438-49.707031-45.464844-3.136719-25.3125 12.597656-49.148438 37.105468-56.21875 24.507813-7.070313 50.519532 4.726562 61.34375 27.824218 10.828125 23.09375 3.257813 50.632813-17.855468 64.949219zm0 0"/><path d="m410.246094 178.3125c-1.429688.96875-2.929688 1.832031-4.488282 2.582031-17.0625 8.195313-37.554687 1.425781-46.375-15.324219-8.820312-16.75-2.8125-37.476562 13.601563-46.90625 16.414063-9.433593 37.351563-4.1875 47.378906 11.867188 10.03125 16.054688 5.558594 37.167969-10.117187 47.78125zm-10.289063-15.179688c6.917969-4.699218 9.359375-13.753906 5.742188-21.292968-3.621094-7.539063-12.210938-11.300782-20.207031-8.839844-7.996094 2.460938-12.988282 10.398438-11.742188 18.667969 1.246094 8.273437 8.355469 14.386719 16.71875 14.386719 3.382812 0 6.691406-1.019532 9.488281-2.921876zm0 0"/><path d="m399.957031 163.132812c-6.421875 4.359376-14.992187 3.78125-20.773437-1.402343-5.777344-5.179688-7.285156-13.636719-3.648438-20.496094 3.636719-6.859375 11.476563-10.359375 19.011719-8.484375s12.824219 8.640625 12.820313 16.402344c.027343 5.609375-2.753907 10.855468-7.410157 13.980468zm0 0"/><path d="m402.617188 262.035156c0 5.625-4.5625 10.1875-10.1875 10.1875-5.628907 0-10.191407-4.5625-10.191407-10.1875 0-5.628906 4.5625-10.191406 10.191407-10.191406 5.625 0 10.1875 4.5625 10.1875 10.191406zm0 0"/><path d="m338.585938 10.441406v22.773438c-.003907 16.59375-13.453126 30.042968-30.046876 30.046875h-20.703124l-.628907-.289063c10.261719-23.113281 28.5-41.757812 51.378907-52.53125zm0 0"/><path d="m300.617188 88.824219c6.78125-.15625 13.117187 3.371093 16.554687 9.21875 3.4375 5.847656 3.4375 13.101562 0 18.949219-3.4375 5.847656-9.773437 9.378906-16.554687 9.222656h-23.121094l-.910156-.351563 1.652343-4.328125s.039063-19.890625.160157-21.8125c.203124-3.757812.609374-7.503906 1.21875-11.21875l1.929687.320313zm0 0"/></g><path d="m131.726562 238.253906c-6.871093.042969-12.84375 4.734375-14.519531 11.398438v76.941406h-93.6875s3.699219-104.320312 0-144.101562c-1.089843-11.71875-12.332031-39.480469-12.332031-39.480469-32.929688-63.058594 10.570312-139.886719 81.671875-142.449219.886719-.027344 1.796875-.050781 2.699219-.058594 56.207031-.648437 102.953125 43.089844 106.039062 99.21875.121094 1.921875.160156 21.8125.160156 21.8125l20.148438 52.777344c.550781 1.433594.355469 3.046875-.515625 4.3125-.871094 1.261719-2.308594 2.019531-3.84375 2.019531h-30.960937v34.46875c.003906 6.304688-2.550782 12.34375-7.074219 16.738281-4.519531 4.390626-10.628907 6.765626-16.933594 6.582032-1.660156-.050782-18.699219-.128906-30.691406-.179688zm0 0" fill="#e48e66"/><path d="m390.503906 190.394531c-7.304687-.003906-14.476562-1.9375-20.789062-5.609375-1.867188-1.066406-3.023438-3.058594-3.019532-5.210937 0-2.152344 1.15625-4.140625 3.027344-5.207031 1.871094-1.066407 4.171875-1.050782 6.023438.046874 4.480468 2.601563 9.566406 3.976563 14.75 3.980469.378906 0 .761718-.007812 1.148437-.023437 3.308594-.128906 6.101563 2.449218 6.230469 5.761718s-2.449219 6.101563-5.761719 6.230469c-.539062.019531-1.074219.03125-1.609375.03125zm34.957032-31.082031c-.242188 0-.484376-.011719-.722657-.042969-3.292969-.394531-5.636719-3.382812-5.242187-6.671875.664062-5.527344-.273438-11.128906-2.703125-16.136718-.675781-1.410157-1.464844-2.761719-2.355469-4.046876-1.023438-1.464843-2.179688-2.835937-3.453125-4.089843-2.363281-2.324219-2.390625-6.125-.066406-8.488281 2.324219-2.359376 6.125-2.390626 8.484375-.0625 3.378906 3.320312 6.152344 7.203124 8.203125 11.472656 2.703125 5.574218 4.105469 11.6875 4.097656 17.882812 0 1.636719-.097656 3.273438-.292969 4.902344-.363281 3.011719-2.914062 5.277344-5.949218 5.28125zm-67.863282-16.859375c-1.980468 0-3.832031-.972656-4.949218-2.605469-1.121094-1.632812-1.363282-3.710937-.652344-5.558594 2.824218-7.332031 7.691406-13.703124 14.023437-18.355468 2.671875-1.90625 6.382813-1.316406 8.324219 1.332031 1.945312 2.648437 1.398438 6.367187-1.226562 8.34375-4.484376 3.292969-7.929688 7.804687-9.929688 13-.890625 2.3125-3.109375 3.839844-5.589844 3.84375zm0 0" fill="#e48e66"/><path d="m430.90625 254.632812c-3.3125 0-6-2.6875-6-6v-38.015624l-39.398438-58.09375c-1.832031-2.742188-1.109374-6.445313 1.617188-8.300782 2.726562-1.851562 6.441406-1.152344 8.3125 1.5625l40.441406 59.621094c.671875.992188 1.03125 2.167969 1.03125 3.367188v39.859374c0 3.316407-2.6875 6.003907-6.003906 6zm0 0" fill="#2561a1"/><path d="m430.90625 296.875c-3.3125 0-6-2.6875-6-6v-.152344c0-3.3125 2.6875-6 6-6 3.316406 0 6 2.6875 6 6v.152344c0 3.3125-2.683594 6-6 6zm0 0" fill="#2561a1"/><path d="m430.90625 332.59375c-3.3125 0-6-2.6875-6-6v-13.910156c0-3.3125 2.6875-6 6-6 3.316406 0 6 2.6875 6 6v13.910156c0 3.3125-2.683594 6-6 6zm0 0" fill="#2561a1"/><path d="m390.46875 172.054688c-11.339844.003906-20.976562-8.285157-22.664062-19.5-1.6875-11.210938 5.078124-21.972657 15.914062-25.304688 10.839844-3.335938 22.484375 1.757812 27.390625 11.976562 4.910156 10.222657 1.601563 22.496094-7.777344 28.867188-3.796875 2.578125-8.277343 3.957031-12.863281 3.960938zm0-33.800782c-6.019531 0-10.902344 4.878906-10.902344 10.898438 0 6.019531 4.882813 10.902344 10.902344 10.902344 2.175781.003906 4.304688-.648438 6.105469-1.875 3.964843-2.6875 5.710937-7.644532 4.308593-12.21875-1.402343-4.578126-5.628906-7.707032-10.414062-7.707032zm0 0" fill="#e48e66"/><path d="m392.429688 332.59375c-3.316407 0-6-2.6875-6-6v-54.371094c0-3.3125 2.683593-6 6-6 3.3125 0 6 2.6875 6 6v54.371094c0 3.3125-2.6875 6-6 6zm0 0" fill="#2561a1"/><path d="m430.867188 275.402344c-8.941407 0-16.1875-7.246094-16.1875-16.1875s7.246093-16.191406 16.1875-16.191406c8.941406 0 16.191406 7.25 16.191406 16.191406-.011719 8.9375-7.253906 16.179687-16.191406 16.1875zm0-20.378906c-2.3125 0-4.1875 1.875-4.1875 4.191406 0 2.3125 1.875 4.1875 4.1875 4.1875 2.316406 0 4.191406-1.875 4.191406-4.1875-.003906-2.3125-1.878906-4.1875-4.191406-4.191406zm0 0" fill="#f8ec7d"/><path d="m392.429688 278.222656c-8.941407 0-16.191407-7.246094-16.191407-16.1875s7.25-16.191406 16.191407-16.191406c8.941406 0 16.1875 7.25 16.1875 16.191406-.011719 8.933594-7.253907 16.175782-16.1875 16.1875zm0-20.378906c-2.316407 0-4.191407 1.875-4.191407 4.191406 0 2.3125 1.875 4.1875 4.191407 4.1875 2.3125 0 4.1875-1.875 4.1875-4.1875-.003907-2.316406-1.875-4.1875-4.1875-4.191406zm0 0" fill="#f8ec7d"/></svg>