<svg viewBox="0 0 472 472" xmlns="http://www.w3.org/2000/svg"><path d="m264 0h208v384h-208c-22.089844 0-40-17.910156-40-40v-304c0-22.089844 17.910156-40 40-40zm0 0" fill="#f0be59"/><path d="m179.535156 344.246094c36.625-18.699219 59.898438-56.128906 60.464844-97.246094v-71c0-61.855469-53.726562-112-120-112s-120 50.144531-120 112v71c.566406 41.117188 23.839844 78.546875 60.464844 97.246094l19.535156 10.417968v53.335938l-58.398438 5.839844c-12.265624 1.234375-21.601562 11.554687-21.601562 23.878906v34.28125h240v-34.28125c0-12.324219-9.335938-22.644531-21.601562-23.878906l-58.398438-5.839844v-53.335938zm0 0" fill="#c9dfff"/><g fill="#1cc8eb"><path d="m46.664062 251.335938 22 22 20.265626-13.96875c2.019531-1.394532 4.601562-1.683594 6.878906-.773438 2.28125.910156 3.953125 2.898438 4.457031 5.300781l5.070313 24.105469h29.328124l5.070313-24.105469c.503906-2.402343 2.175781-4.390625 4.457031-5.300781 2.277344-.910156 4.859375-.621094 6.878906.773438l20.265626 13.96875 22-22-13.96875-20.265626c-1.394532-2.019531-1.683594-4.601562-.773438-6.878906.910156-2.28125 2.898438-3.953125 5.300781-4.457031l24.105469-5.070313v-29.328124l-24.105469-5.070313c-2.402343-.503906-4.390625-2.175781-5.300781-4.457031-.910156-2.277344-.621094-4.859375.773438-6.878906l13.96875-20.265626-22-22-20.265626 13.96875c-2.019531 1.394532-4.601562 1.683594-6.878906.773438-2.28125-.910156-3.953125-2.898438-4.457031-5.300781l-5.070313-24.105469h-29.328124l-5.070313 24.105469c-.503906 2.402343-2.175781 4.390625-4.457031 5.300781-2.277344.910156-4.859375.621094-6.878906-.773438l-20.265626-13.96875-22 22 13.96875 20.265626c1.394532 2.019531 1.683594 4.601562.773438 6.878906-.910156 2.28125-2.898438 3.953125-5.300781 4.457031l-24.105469 5.070313v29.328124l24.105469 5.070313c2.402343.503906 4.390625 2.175781 5.300781 4.457031.910156 2.277344.621094 4.859375-.773438 6.878906zm73.335938-83.335938c17.671875 0 32 14.328125 32 32s-14.328125 32-32 32-32-14.328125-32-32 14.328125-32 32-32zm0 0"/><path d="m304 184c0 8.835938-7.164062 16-16 16s-16-7.164062-16-16 7.164062-16 16-16 16 7.164062 16 16zm0 0"/><path d="m336 96c-7.042969.007812-13.253906 4.621094-15.296875 11.363281-2.042969 6.742188.566406 14.027344 6.425781 17.941407 5.699219 3.808593 13.195313 3.5625 18.632813-.613282 5.4375-4.175781 7.609375-11.355468 5.402343-17.84375-2.207031-6.492187-8.308593-10.855468-15.164062-10.847656zm0 0"/><path d="m424 152c0 8.835938-7.164062 16-16 16s-16-7.164062-16-16 7.164062-16 16-16 16 7.164062 16 16zm0 0"/><path d="m456 56c0 8.835938-7.164062 16-16 16s-16-7.164062-16-16 7.164062-16 16-16 16 7.164062 16 16zm0 0"/></g><path d="m179.367188 168.929688 13.96875-20.265626-22-22-2.097657 1.441407c-4.542969 20.1875-11.347656 39.800781-20.277343 58.46875 4.542968 9.617187 3.964843 20.871093-1.535157 29.976562-5.503906 9.101563-15.199219 14.839844-25.824219 15.289063-7.3125 9.847656-15.269531 19.203125-23.816406 28 1.25 1.035156 2.117188 2.460937 2.453125 4.046875l5.097657 24.113281h29.328124l5.070313-24.105469c.503906-2.402343 2.175781-4.390625 4.457031-5.300781 2.277344-.910156 4.859375-.621094 6.878906.773438l20.265626 13.96875 22-22-13.96875-20.265626c-1.394532-2.019531-1.683594-4.601562-.773438-6.878906.910156-2.28125 2.898438-3.953125 5.300781-4.457031l24.105469-5.070313v-29.328124l-24.105469-5.070313c-2.402343-.503906-4.390625-2.175781-5.300781-4.457031-.910156-2.277344-.621094-4.859375.773438-6.878906zm0 0" fill="#1abbdb"/><path d="m102.503906 365.601562-7.535156 14.117188c7.742188 4.089844 16.371094 6.214844 25.128906 6.191406 8.566406.035156 17.015625-2.035156 24.597656-6.023437l15.304688-7.269531v-17.707032l-22.496094 10.691406c-10.957031 5.757813-24.042968 5.757813-35 0zm0 0" fill="#abbed9"/><path d="m312 184c-.015625-5.171875-1.714844-10.195312-4.847656-14.3125l23-34.488281c1.90625.511719 3.871094.78125 5.847656.800781 5.832031-.023438 11.453125-2.183594 15.800781-6.070312l32.597657 18.109374c-2.035157 11.578126 4.609374 22.925782 15.699218 26.8125 11.09375 3.886719 23.371094-.832031 29.003906-11.148437 5.632813-10.316406 2.964844-23.191406-6.300781-30.421875l17.664063-53.328125c11.785156-.171875 21.734375-8.8125 23.546875-20.460937 1.816406-11.644532-5.03125-22.90625-16.207031-26.652344-11.175782-3.746094-23.425782 1.109375-29 11.496094-5.570313 10.390624-2.84375 23.28125 6.460937 30.519531l-17.546875 53.144531c-5.730469.078125-11.242188 2.222656-15.519531 6.039062l-32.597657-18.039062c1.902344-10.808594-3.765624-21.535156-13.773437-26.046875s-21.800781-1.65625-28.636719 6.929687c-6.839844 8.585938-6.980468 20.71875-.34375 29.460938l-23 34.457031c-1.90625-.511719-3.871094-.78125-5.847656-.800781-13.253906 0-24 10.746094-24 24s10.746094 24 24 24 24-10.746094 24-24zm128-136c4.417969 0 8 3.582031 8 8s-3.582031 8-8 8-8-3.582031-8-8 3.582031-8 8-8zm-32 96c4.417969 0 8 3.582031 8 8s-3.582031 8-8 8-8-3.582031-8-8 3.582031-8 8-8zm-72-40c4.417969 0 8 3.582031 8 8s-3.582031 8-8 8-8-3.582031-8-8 3.582031-8 8-8zm-56 80c0-4.417969 3.582031-8 8-8s8 3.582031 8 8-3.582031 8-8 8-8-3.582031-8-8zm0 0" fill="#c9dfff"/><path d="m448 336h-16v-48h-16v48h-16v-56h-16v56h-16v-80h-16v80h-16v-128h-16v128h-16v-32h-16v32h-16v16h192v-192h-16zm0 0" fill="#a3771d"/></svg>