<?xml version="1.0" encoding="UTF-8"?>
<svg xmlns="http://www.w3.org/2000/svg" xmlns:xlink="http://www.w3.org/1999/xlink" width="512" height="512" viewBox="0 0 58 36" version="1.1"><!-- Generator: Sketch 50.2 (55047) - http://www.bohemiancoding.com/sketch --><title>067 - Lathe</title><desc>Created with Sketch.</desc><defs/><g id="Page-1" stroke="none" stroke-width="1" fill="none" fill-rule="evenodd"><g id="067---Lathe" fill-rule="nonzero"><rect id="Rectangle-path" fill="#C03A2B" x="7" y="18" width="41" height="11"/><rect id="Rectangle-path" fill="#802F34" x="6" y="26" width="43" height="8"/><path d="M58,18 L58,21 L56.116,35.132 C56.0498455,35.6287851 55.6261704,35.9998748 55.125,36 L45,36 C44.4477153,36 44,35.5522847 44,35 L44,18 L58,18 Z" id="Shape" fill="#E64C3C"/><path d="M24,7 L28,7 C28.5522847,7 29,7.44771525 29,8 L29,15 L23,15 L23,8 C23,7.44771525 23.4477153,7 24,7 Z" id="Shape" fill="#A5A5A4"/><path d="M40,6 L33,6 C32.4477153,6 32,5.55228475 32,5 C32,4.44771525 32.4477153,4 33,4 L40,4 C40.5522847,4 41,4.44771525 41,5 C41,5.55228475 40.5522847,6 40,6 Z" id="Shape" fill="#D1D4D1"/><path d="M44,1 L39.629,2.749 C39.2493495,2.90067484 39.0002588,3.2681728 39,3.677 L39,6.323 C39.0002588,6.7318272 39.2493495,7.09932516 39.629,7.251 L44,9 L46,9 L46,1 L44,1 Z" id="Shape" fill="#A5A5A4"/><path d="M42.5,3.5 L58.5,3.5 L58.5,15.5 L41.5,15.5 L41.5,4.5 C41.5,3.94771525 41.9477153,3.5 42.5,3.5 Z" id="Shape" fill="#E64C3C" transform="translate(50.000000, 9.500000) rotate(90.000000) translate(-50.000000, -9.500000) "/><path d="M32,21 L58,21 L58,16 C58,15.4477153 57.5522847,15 57,15 L8,15 L8,21 L32,21 Z" id="Shape" fill="#802F34"/><path d="M40,29 L21,29 C20.4477153,29 20,29.4477153 20,30 C20,30.5522847 20.4477153,31 21,31 L40,31 C40.5522847,31 41,30.5522847 41,30 C41,29.4477153 40.5522847,29 40,29 Z" id="Shape" fill="#CC4B4C"/><path d="M17,29 L15,29 C14.4477153,29 14,29.4477153 14,30 C14,30.5522847 14.4477153,31 15,31 L17,31 C17.5522847,31 18,30.5522847 18,30 C18,29.4477153 17.5522847,29 17,29 Z" id="Shape" fill="#CC4B4C"/><rect id="Rectangle-path" fill="#D1D4D1" x="20" y="14" width="12" height="8" rx="1"/><path d="M28,17 L24,17 C23.4477153,17 23,17.4477153 23,18 C23,18.5522847 23.4477153,19 24,19 L28,19 C28.5522847,19 29,18.5522847 29,18 C29,17.4477153 28.5522847,17 28,17 Z" id="Shape" fill="#E6E7E8"/><path d="M0,18 L0,21 L1.884,35.132 C1.95015449,35.6287851 2.37382955,35.9998748 2.875,36 L10,36 C10.5522847,36 11,35.5522847 11,35 L11,18 L0,18 Z" id="Shape" fill="#E64C3C"/><rect id="Rectangle-path" fill="#C03A2B" x="0" y="6" width="11" height="15"/><path d="M14,1 L14,9 C14,9.55228475 13.5522847,10 13,10 L0,10 L0,1 C-1.11022302e-16,0.44771525 0.44771525,0 1,0 L13,0 C13.5522847,0 14,0.44771525 14,1 Z" id="Shape" fill="#E64C3C"/><path d="M14,1 L17,1 C17.5522847,1 18,1.44771525 18,2 L18,8 C18,8.55228475 17.5522847,9 17,9 L14,9 L14,1 Z" id="Shape" fill="#C03A2B"/></g></g></svg>
