<svg height="477pt" viewBox="-5 0 477 477.33488" width="477pt" xmlns="http://www.w3.org/2000/svg"><path d="m370.261719 413.414062 11.3125-11.316406 63.921875 63.921875-11.3125 11.316407zm0 0" fill="#264b74"/><path d="m.167969 112h240v104h-240zm0 0" fill="#878b9b"/><path d="m.167969 216h240v184h-240zm0 0" fill="#4a4a56"/><path d="m16.167969 80h208c8.800781 0 16 7.199219 16 16v16h-240v-16c0-8.800781 7.199219-16 16-16zm0 0" fill="#676b7f"/><path d="m.167969 400h240v48c0 8.800781-7.199219 16-16 16h-208c-8.800781 0-16-7.199219-16-16zm0 0" fill="#676b7f"/><g fill="#878b9b"><path d="m96.167969 424h48v16h-48zm0 0"/><path d="m40.167969 248h160v16h-160zm0 0"/><path d="m40.167969 288h160v16h-160zm0 0"/></g><path d="m48.167969 328h144v40h-144zm0 0" fill="#f4a422"/><path d="m112.167969 176h16v16h-16zm0 0" fill="#676b7f"/><path d="m144.167969 176h16v16h-16zm0 0" fill="#676b7f"/><path d="m80.167969 176h16v16h-16zm0 0" fill="#676b7f"/><path d="m344.964844 252.5 40.070312-80.140625 14.308594 7.15625-40.066406 80.140625zm0 0" fill="#2ab793"/><path d="m421.765625 261.601562-11.199219-11.203124 34.402344-34.398438-34.402344-34.398438 11.199219-11.203124 45.601563 45.601562zm0 0" fill="#2ab793"/><path d="m314.566406 261.601562-45.597656-45.601562 45.597656-45.601562 11.199219 11.203124-34.398437 34.398438 34.398437 34.398438zm0 0" fill="#2ab793"/><path d="m392.167969 152h-16v-56c0-4.800781-3.199219-8-8-8h-24v-16h24c13.597656 0 24 10.398438 24 24zm0 0" fill="#d6d7d8"/><path d="m320.167969 87.199219v-14.398438l-20-12c-1.601563-3.199219-2.402344-5.601562-4-9.601562l5.597656-23.199219c-4.796875-4-5.597656-4.800781-10.398437-9.601562l-22.398438 5.601562c-3.203125-1.601562-5.601562-2.398438-9.601562-4l-12-20h-14.398438l-12 20-9.601562 4-23.199219-5.601562c-4 4.800781-4.800781 5.601562-9.601563 10.402343l5.601563 22.398438c-1.601563 3.199219-2.402344 5.601562-4 9.601562l-20 12v14.398438l20 12c1.597656 3.199219 2.398437 5.601562 4 9.601562l-5.601563 23.199219 10.402344 10.398438 23.199219-5.597657c3.199219 1.597657 5.597656 2.398438 9.597656 4l12 20h14.402344l12-20c3.199219-1.601562 5.597656-2.402343 9.597656-4l23.203125 5.597657c4.796875-4.796876 5.597656-5.597657 10.398438-10.398438l-7.199219-23.199219c1.597656-3.199219 2.398437-5.601562 4-9.601562zm-80 24.800781c-17.601563 0-32-14.398438-32-32s14.398437-32 32-32c17.597656 0 32 14.398438 32 32s-14.402344 32-32 32zm0 0" fill="#b4b4b5"/><path d="m344.167969 432c-40 0-72-32-72-72s32-72 72-72 72 32 72 72-32 72-72 72zm0-128c-31.199219 0-56 24.800781-56 56s24.800781 56 56 56 56-24.800781 56-56-24.800781-56-56-56zm0 0" fill="#2f5989"/></svg>