<svg height="512pt" viewBox="0 -57 512 512" width="512pt" xmlns="http://www.w3.org/2000/svg"><path d="m211.863281 35.308594h211.859375v44.140625h-211.859375zm0 0" fill="#d1d4d1"/><path d="m229.515625 35.308594v44.140625c-.027344 9.738281-7.914063 17.625-17.652344 17.652343h-52.964843v-79.445312h52.964843c9.738281.027344 17.625 7.914062 17.652344 17.652344zm0 0" fill="#3f5c6c"/><path d="m476.691406 17.65625v79.445312h-52.96875c-9.738281-.027343-17.625-7.914062-17.652344-17.652343v-44.140625c.027344-9.738282 7.914063-17.625 17.652344-17.652344zm0 0" fill="#3f5c6c"/><path d="m167.722656 158.898438h123.585938v35.308593h-123.585938zm0 0" fill="#7f8284"/><path d="m344.277344 158.898438h123.585937v35.308593h-123.585937" fill="#7f8284"/><path d="m512 44.136719v344.277343c0 4.875-3.953125 8.828126-8.828125 8.828126h-494.34375c-4.875 0-8.828125-3.953126-8.828125-8.828126v-344.277343c0-24.375 19.761719-44.136719 44.136719-44.136719h123.585937c4.875 0 8.828125 3.953125 8.828125 8.828125v229.515625c0 4.875 3.953125 8.828125 8.828125 8.828125h264.828125c4.875 0 8.828125-3.953125 8.828125-8.828125v-229.515625c0-4.875 3.953125-8.828125 8.828125-8.828125 24.375 0 44.136719 19.761719 44.136719 44.136719zm0 0" fill="#9bc8c2"/><path d="m317.792969 79.449219s-16.15625 7.324219-17.566407 70.621093h-8.917968c-4.875 0-8.824219 3.949219-8.824219 8.828126v35.308593c0 4.875 3.949219 8.828125 8.824219 8.828125h52.96875c4.875 0 8.824218-3.953125 8.824218-8.828125v-35.308593c0-4.878907-3.949218-8.828126-8.824218-8.828126h-8.917969c-1.410156-63.296874-17.566406-70.621093-17.566406-70.621093zm0 0" fill="#a5a5a4"/><path d="m44.136719 44.136719h17.65625c4.875 0 8.828125 3.953125 8.828125 8.828125v17.65625c0 4.875-3.953125 8.828125-8.828125 8.828125h-17.65625c-4.875 0-8.828125-3.953125-8.828125-8.828125v-17.65625c0-4.875 3.953125-8.828125 8.828125-8.828125zm0 0" fill="#e64c3c"/><path d="m114.757812 44.136719h17.65625c4.875 0 8.828126 3.953125 8.828126 8.828125v17.65625c0 4.875-3.953126 8.828125-8.828126 8.828125h-17.65625c-4.875 0-8.828124-3.953125-8.828124-8.828125v-17.65625c0-4.875 3.953124-8.828125 8.828124-8.828125zm0 0" fill="#3b97d3"/><path d="m44.136719 114.757812h17.65625c4.875 0 8.828125 3.953126 8.828125 8.828126v17.65625c0 4.875-3.953125 8.828124-8.828125 8.828124h-17.65625c-4.875 0-8.828125-3.953124-8.828125-8.828124v-17.65625c0-4.875 3.953125-8.828126 8.828125-8.828126zm0 0" fill="#547580"/><path d="m114.757812 114.757812h17.65625c4.875 0 8.828126 3.953126 8.828126 8.828126v17.65625c0 4.875-3.953126 8.828124-8.828126 8.828124h-17.65625c-4.875 0-8.828124-3.953124-8.828124-8.828124v-17.65625c0-4.875 3.953124-8.828126 8.828124-8.828126zm0 0" fill="#547580"/><path d="m106.992188 237.285156c-3.570313 0-6.789063-2.152344-8.15625-5.449218-1.367188-3.296876-.609376-7.09375 1.914062-9.617188l7.765625-7.769531c3.464844-3.347657 8.972656-3.296875 12.375.105469 3.40625 3.40625 3.453125 8.914062.109375 12.375l-7.769531 7.769531c-1.652344 1.65625-3.898438 2.589843-6.238281 2.585937zm0 0" fill="#33907c"/><path d="m150.070312 256c-4.875 0-8.828124-3.953125-8.828124-8.828125 0-29.25-23.714844-52.964844-52.964844-52.964844-29.253906 0-52.96875 23.714844-52.96875 52.964844 0 4.875-3.949219 8.828125-8.824219 8.828125-4.878906 0-8.828125-3.953125-8.828125-8.828125 0-39.003906 31.617188-70.621094 70.621094-70.621094 39 0 70.621094 31.617188 70.621094 70.621094 0 4.875-3.953126 8.828125-8.828126 8.828125zm0 0" fill="#e64c3c"/><path d="m194.207031 335.449219v61.792969h-35.308593v-44.140626c.027343-9.738281 7.914062-17.625 17.652343-17.652343zm0 0" fill="#3f5c6c"/><path d="m194.207031 335.449219h35.308594v61.792969h-35.308594zm0 0" fill="#547580"/><path d="m406.070312 335.449219h35.308594v61.792969h-35.308594zm0 0" fill="#547580"/><g fill="#3f5c6c"><path d="m476.691406 353.101562v44.140626h-35.3125v-61.792969h17.65625c9.738282.027343 17.625 7.914062 17.65625 17.652343zm0 0"/><path d="m229.515625 335.449219h35.3125v61.792969h-35.3125zm0 0"/><path d="m370.757812 335.449219h35.3125v61.792969h-35.3125zm0 0"/></g><path d="m264.828125 335.449219h35.308594v61.792969h-35.308594zm0 0" fill="#547580"/><path d="m335.449219 335.449219h35.308593v61.792969h-35.308593zm0 0" fill="#547580"/><path d="m300.136719 335.449219h35.3125v61.792969h-35.3125zm0 0" fill="#3f5c6c"/><path d="m114.757812 247.171875c0 14.625-11.855468 26.484375-26.480468 26.484375-14.628906 0-26.484375-11.859375-26.484375-26.484375s11.855469-26.480469 26.484375-26.480469c14.625 0 26.480468 11.855469 26.480468 26.480469zm0 0" fill="#46b29d"/></svg>