<?xml version="1.0"?>
<svg xmlns="http://www.w3.org/2000/svg" id="Layer_1" data-name="Layer 1" viewBox="0 0 512 512" width="512" height="512"><title>Innovative</title><path d="M408.46,246.91c0,38.67-16.15,73.64-41.99,100.03-27.78,27.62-40.7,62.6-35.53,100.04v.61H179.13c5.17-36.82-7.75-74.26-34.88-101.26a139.97,139.97,0,0,1-41.34-101.87c1.29-76.72,69.76-141.77,150.51-143C338.69,100.24,408.46,165.9,408.46,246.91Z" style="fill:#00acea"/><path d="M349.5,194.53c10.14,14.79,2.08,39.45-18.46,64.61a205.854,205.854,0,0,0-25.96-26.26c-1.89-17.91-5.66-34.19-10.83-47.75C319.87,178.94,340.66,181.64,349.5,194.53Z" style="fill:#00acea"/><polygon points="322.85 447.65 322.85 498.96 189.15 498.96 189.15 447.65 189.15 447.59 322.85 447.59 322.85 447.65" style="fill:#fedb41"/><path d="M294.25,185.13c5.17,13.56,8.94,29.84,10.83,47.75a251.4,251.4,0,0,0-20.89-15.97,246.817,246.817,0,0,0-28.94-17.11A184.409,184.409,0,0,1,294.25,185.13Z" style="fill:#00acea"/><path d="M255.24,144.86c15.63,0,29.62,15.63,39.01,40.27a184.409,184.409,0,0,0-39,14.67,184.549,184.549,0,0,0-39.02-14.67,114.841,114.841,0,0,1,7.35-15.8l.08-.09a17.434,17.434,0,0,0,25.41-23.55A23.406,23.406,0,0,1,255.24,144.86Z" style="fill:#00acea"/><path d="M255.25,199.8a244.731,244.731,0,0,0-28.95,17.11,253.076,253.076,0,0,0-20.89,15.97c1.89-17.91,5.66-34.2,10.82-47.75A184.549,184.549,0,0,1,255.25,199.8Z" style="fill:#00acea"/><path d="M226.3,301.36a246.931,246.931,0,0,0,28.94,17.12,184.755,184.755,0,0,1-39,14.67c-5.17-13.55-8.95-29.84-10.83-47.75A251.331,251.331,0,0,0,226.3,301.36Z" style="fill:#00acea"/><path d="M216.23,185.13c-5.16,13.55-8.93,29.84-10.82,47.75a205.316,205.316,0,0,0-25.97,26.26c-20.54-25.16-28.59-49.82-18.45-64.61C169.82,181.64,190.61,178.94,216.23,185.13Z" style="fill:#00acea"/><path d="M205.41,285.4c1.88,17.91,5.66,34.2,10.83,47.75-25.62,6.19-46.42,3.49-55.25-9.4-4.15-6.05-5.25-13.74-3.71-22.44v-.01a17.441,17.441,0,0,0,14.32-31.7q3.54-5.19,7.84-10.46A206.617,206.617,0,0,0,205.41,285.4Z" style="fill:#00acea"/><path d="M205.41,232.88a254.2,254.2,0,0,0,0,52.52,206.617,206.617,0,0,1-25.97-26.26A205.316,205.316,0,0,1,205.41,232.88Z" style="fill:#00acea"/><path d="M349.02,455.59H162.98a8,8,0,1,1,0-16H349.02a8,8,0,0,1,0,16Z" style="fill:#f4b844"/><path d="M252.12,61.18a8,8,0,0,1-8-8V13.04a8,8,0,0,1,16,0V53.18A8,8,0,0,1,252.12,61.18Z" style="fill:#fedb41"/><path d="M407.813,136.46a8,8,0,0,1-5.251-14.038l36.51-31.73a8,8,0,1,1,10.5,12.076L413.058,134.5A7.973,7.973,0,0,1,407.813,136.46Z" style="fill:#fedb41"/><path d="M102.249,130.94a7.975,7.975,0,0,1-5.52-2.21L62.16,95.77A8,8,0,1,1,73.2,84.19l34.57,32.96a8,8,0,0,1-5.522,13.79Z" style="fill:#fedb41"/><path d="M345.39,303.084c1.119,6.668.282,12.1-2.488,16.142-5.587,8.147-19.537,10.944-38.115,7.909a208.85,208.85,0,0,0,7.9-37.756,221.244,221.244,0,0,0,17.984-17.574c.7.976,1.378,1.949,2.026,2.912l.025-.016.233.381,6.419-4.772-.54.277,3.8-1.948,3.887-1.9c-.012-.026-.024-.051-.037-.076l.007,0a8.2,8.2,0,0,0-.48-.816l-.043-.064c-1.475-2.192-3.074-4.412-4.758-6.64,20.834-27.521,26.293-52.5,14.889-69.138-9.689-14.127-30.258-19.129-56.992-14.095C288.13,151,272.37,136.86,255.24,136.86a31.467,31.467,0,0,0-8.271,1.111l4.2,15.438a15.478,15.478,0,0,1,4.069-.549c9.881,0,20.081,9.927,28.084,26.971a198.288,198.288,0,0,0-28.075,11.075,198.771,198.771,0,0,0-28.09-11.076c1.085-2.31,2.211-4.5,3.374-6.543l-13.906-7.913a114.266,114.266,0,0,0-5.259,10.535c-26.739-5.033-47.3-.029-56.976,14.1-11.407,16.638-5.951,41.622,14.881,69.14-1.511,2-2.947,3.989-4.282,5.946l.094.065-.651.883,7.136,3.585,5.547,5.768.115-.111,0,0a8.088,8.088,0,0,0,.981-1.192c.516-.756,1.052-1.519,1.6-2.286a221.586,221.586,0,0,0,17.991,17.58,209.145,209.145,0,0,0,7.888,37.747c-18.574,3.039-32.524.241-38.109-7.912-2.824-4.116-3.641-9.674-2.43-16.52L149.4,299.916c-1.94,10.965-.214,20.772,4.988,28.355,7.226,10.549,20.512,16.017,37.911,16.016a103.586,103.586,0,0,0,19.085-1.912c10.973,24.9,26.73,39.035,43.854,39.035s32.892-14.133,43.854-39.029a104.665,104.665,0,0,0,19.506,2c17.249,0,30.2-5.458,37.5-16.105,5.119-7.472,6.872-17.1,5.069-27.836Zm-72.253,14.765q7.868-4.615,15.578-9.892,2.751-1.887,5.442-3.836a174.338,174.338,0,0,1-5,19.366A167.822,167.822,0,0,1,273.137,317.849Zm-51.811,5.637a175,175,0,0,1-5-19.366q2.691,1.945,5.447,3.839,7.685,5.267,15.571,9.888A167.869,167.869,0,0,1,221.326,323.486Zm0-128.695a167.8,167.8,0,0,1,16.02,5.637q-7.854,4.606-15.568,9.885-2.744,1.883-5.438,3.834A175.714,175.714,0,0,1,221.322,194.791ZM196.136,265.8q-3.224-3.308-6.185-6.661,2.961-3.354,6.185-6.665-.084,3.327-.086,6.667T196.136,265.8Zm34.689,28.964c-6.224-4.269-12.167-8.773-17.753-13.4-.665-7.273-1.022-14.725-1.022-22.222s.357-14.948,1.022-22.221c5.653-4.681,11.6-9.191,17.75-13.41a239.753,239.753,0,0,1,24.424-14.724,241.129,241.129,0,0,1,24.419,14.722c6.192,4.247,12.137,8.756,17.753,13.41.665,7.271,1.022,14.723,1.022,22.223s-.357,14.94-1.022,22.213c-5.616,4.654-11.561,9.162-17.751,13.408a240.879,240.879,0,0,1-24.426,14.732A241.607,241.607,0,0,1,230.825,294.763Zm83.529-42.279q3.219,3.3,6.174,6.654-2.955,3.347-6.174,6.651.084-3.318.086-6.649T314.354,252.484Zm-20.2-38.339q-2.69-1.946-5.439-3.833c-5.11-3.5-10.314-6.8-15.567-9.882a167.445,167.445,0,0,1,16.016-5.638A175.037,175.037,0,0,1,294.151,214.145ZM342.9,199.054c6.605,9.633,1.773,27.706-12.244,47.406a220.8,220.8,0,0,0-17.977-17.57,210.049,210.049,0,0,0-7.889-37.745C323.362,188.107,337.313,190.905,342.9,199.054Zm-175.312,0c5.581-8.147,19.525-10.944,38.1-7.905a210.2,210.2,0,0,0-7.882,37.742,219.985,219.985,0,0,0-17.988,17.572C165.809,226.764,160.981,208.69,167.59,199.051ZM255.24,365.41c-9.878,0-20.074-9.924-28.075-26.963a198.581,198.581,0,0,0,28.075-11.073,198.462,198.462,0,0,0,28.078,11.073C275.323,355.485,265.126,365.41,255.24,365.41Z" style="fill:#fedb41"/><path d="M255.24,233.7a25.44,25.44,0,1,0,25.44,25.44A25.468,25.468,0,0,0,255.24,233.7Z" style="fill:#00efd1"/><path d="M255.507,140.94a25.438,25.438,0,1,0,4.953,15.08,25.235,25.235,0,0,0-4.951-15.077Z" style="fill:#00efd1"/><path d="M175.444,262.584l-.019-.01a24.817,24.817,0,1,0,.019.01Z" style="fill:#00efd1"/><path d="M348.75,259.48a25.434,25.434,0,1,0,25.44,25.44A25.28,25.28,0,0,0,348.75,259.48Z" style="fill:#00efd1"/></svg>
