<?xml version="1.0"?>
<svg xmlns="http://www.w3.org/2000/svg" id="Layer_1" data-name="Layer 1" viewBox="0 0 512 512" width="512" height="512"><title>Vehicle  Service </title><path d="M354.68,353.17l9.14-4.82,54.97-29.65,6.6-3.56a30.014,30.014,0,0,1,39.98,10.93L335.81,415.02a90.714,90.714,0,0,1-56.42,7.97L204.5,409.2a27.889,27.889,0,0,0-20.38,2.7l-40.56,25.64-28.34-92.93.25-.08a48.6,48.6,0,0,0,23.51-11.5l12.41-11.05a82.881,82.881,0,0,1,85.95-8.39l5.14,2.48a59.225,59.225,0,0,0,25.79,5.91H318.1a37.044,37.044,0,0,1,36.58,31.19Z" style="fill:#e48e66"/><path d="M418.75,318.62l.04.08-54.97,29.65-9.14,4.82a36.912,36.912,0,0,0-12.1-21.95l35.33-19.04,8.99-4.84C398.01,301.71,412.59,307.79,418.75,318.62Z" style="fill:#93513f"/><path d="M377.47,311.37l.44.81-35.33,19.04a36.923,36.923,0,0,0-24.48-9.24H307.05L336.44,306A33.959,33.959,0,0,1,377.47,311.37Z" style="fill:#af593c"/><path d="M366,125.58v32.3l-23.64,2.3a88.894,88.894,0,0,1-12.4,29.41l15.28,18.46-22.78,22.77-18.45-15.28a86.2,86.2,0,0,1-29.41,12.4l-2.31,23.93H240l-2.31-23.93a88.685,88.685,0,0,1-29.41-12.4l-18.45,15.28-22.78-22.77,15.28-18.46a86.2,86.2,0,0,1-12.4-29.41L146,157.88v-32.3l23.93-2.3a88.6,88.6,0,0,1,12.4-29.41L167.05,75.41l22.78-22.78,18.45,15.29a86.006,86.006,0,0,1,29.41-12.4L240,31.58h32.29l2.31,23.94a88.477,88.477,0,0,1,29.41,12.4l18.45-15.29,22.49,22.78L329.67,93.87a86.2,86.2,0,0,1,12.4,29.41Zm-46.98,16.15a62.875,62.875,0,1,0-62.88,62.87A62.877,62.877,0,0,0,319.02,141.73Z" style="fill:#f8ec7d"/><path d="M256.14,78.85a62.875,62.875,0,1,1-62.87,62.88A62.877,62.877,0,0,1,256.14,78.85Z" style="fill:#6fe3ff"/><path d="M355.15,366.03c-.1,0-.21,0-.315-.008l-42.5-1.919a203.113,203.113,0,0,0-37.013,1.71,7,7,0,0,1-1.924-13.867,217.048,217.048,0,0,1,39.57-1.829l34.265,1.548A30.051,30.051,0,0,0,318.1,328.98H268.27a66.6,66.6,0,0,1-28.838-6.609L234.3,319.9a75.584,75.584,0,0,0-78.473,7.508l-12.189,10.855a55.587,55.587,0,0,1-26.9,13.156,7,7,0,0,1-2.537-13.768,41.586,41.586,0,0,0,20.124-9.843l12.409-11.051c.144-.127.292-.249.446-.364a89.525,89.525,0,0,1,93.209-9.1l5.133,2.476a52.518,52.518,0,0,0,22.748,5.215H318.1a44.046,44.046,0,0,1,43.5,37.1,43.543,43.543,0,0,1,.555,6.949,7,7,0,0,1-7,7Z" style="fill:#af694e"/><path d="M248.55,165.09a6.984,6.984,0,0,1-4.891-1.991l-18.6-18.16a7,7,0,1,1,9.781-10.018l13.708,13.385,28.61-27.944a7,7,0,1,1,9.781,10.016l-33.5,32.72A6.977,6.977,0,0,1,248.55,165.09Z" style="fill:#2561a1"/><path d="M143.56,437.54l13.07,42.88h-90l-20-164h60l8.59,28.19Zm-24.64,14.18a12,12,0,1,0-12,12A12,12,0,0,0,118.92,451.72Z" style="fill:#6fe3ff"/></svg>
