<svg enable-background="new 0 0 58 58" height="512" viewBox="0 0 58 58" width="512" xmlns="http://www.w3.org/2000/svg"><path d="m52 29c0 5.631-2.027 10.787-5.386 14.785l4.252 4.252c4.439-5.094 7.134-11.749 7.134-19.037s-2.695-13.943-7.134-19.038l-4.252 4.252c3.359 3.999 5.386 9.155 5.386 14.786z" fill="#dc691d"/><path d="m6 29c0-5.631 2.027-10.787 5.386-14.785l-4.252-4.253c-4.439 5.095-7.134 11.75-7.134 19.038s2.695 13.943 7.134 19.038l4.252-4.252c-3.359-3.999-5.386-9.155-5.386-14.786z" fill="#ebba16"/><path d="m29 6c5.631 0 10.787 2.027 14.785 5.387l4.252-4.252c-5.094-4.44-11.749-7.135-19.037-7.135s-13.943 2.695-19.038 7.134l4.252 4.252c3.999-3.359 9.155-5.386 14.786-5.386z" fill="#75348b"/><path d="m29 52c-5.631 0-10.787-2.027-14.785-5.387l-4.252 4.252c5.094 4.44 11.749 7.135 19.037 7.135s13.943-2.695 19.038-7.134l-4.252-4.252c-3.999 3.359-9.155 5.386-14.786 5.386z" fill="#ed8a19"/><path clip-rule="evenodd" d="m29 13s-3.741 6-13 6l.037 9.819c0 4.584 1.431 9.13 4.4 12.673 2.044 2.438 4.859 4.508 8.563 4.508s6.519-2.07 8.563-4.509c2.969-3.542 4.4-8.088 4.4-12.673l.037-9.818c-9.259 0-13-6-13-6z" fill="#41965b" fill-rule="evenodd"/><g fill="#fff"><path d="m28.001 37c-.304 0-.604-.138-.801-.4l-3-4c-.331-.441-.242-1.068.2-1.399.442-.33 1.069-.242 1.4.2l3 4c.331.441.242 1.068-.2 1.399-.18.135-.391.2-.599.2z"/><path d="m27.999 37c-.184 0-.369-.051-.536-.156-.466-.297-.603-.915-.307-1.381l7-11c.296-.465.914-.602 1.381-.307.466.297.603.915.307 1.381l-7 11c-.191.299-.514.463-.845.463z"/></g></svg>