<svg height="472pt" viewBox="0 0 472 472" width="472pt" xmlns="http://www.w3.org/2000/svg"><path d="m192 272c-4.417969 0-8 3.582031-8 8v8h-24c-4.417969 0-8 3.582031-8 8s3.582031 8 8 8h24v8c0 4.417969 3.582031 8 8 8s8-3.582031 8-8v-32c0-4.417969-3.582031-8-8-8zm0 0" fill="#cfdfe8"/><path d="m232 472c-4.417969 0-8-3.582031-8-8v-8h-128c-4.417969 0-8-3.582031-8-8v-32c0-4.417969 3.582031-8 8-8s8 3.582031 8 8v24h128c4.417969 0 8 3.582031 8 8v16c0 4.417969-3.582031 8-8 8zm0 0" fill="#cfdfe8"/><path d="m64 152h304v96h-304zm0 0" fill="#8a95a0"/><path d="m32 176h32v48h-32zm0 0" fill="#cfdfe8"/><path d="m368 184h32v32h-32zm0 0" fill="#5b6470"/><path d="m16 144c8.835938 0 16 7.164062 16 16v80c0 8.835938-7.164062 16-16 16s-16-7.164062-16-16v-80c0-8.835938 7.164062-16 16-16zm0 0" fill="#5b6470"/><path d="m464 208h-32c-4.417969 0-8-3.582031-8-8s3.582031-8 8-8h32c4.417969 0 8 3.582031 8 8s-3.582031 8-8 8zm0 0" fill="#f98c96"/><path d="m432 176c-4.039062-.003906-7.4375-3.015625-7.929688-7.023438-.492187-4.007812 2.078126-7.753906 5.992188-8.738281l32-8c4.273438-1.035156 8.582031 1.566407 9.648438 5.832031 1.070312 4.265626-1.503907 8.589844-5.757813 9.691407l-32 8c-.640625.160156-1.296875.242187-1.953125.238281zm0 0" fill="#f98c96"/><path d="m464 248c-.65625.003906-1.3125-.078125-1.953125-.238281l-32-8c-2.789063-.679688-5.003906-2.800781-5.796875-5.5625-.796875-2.757813-.050781-5.730469 1.953125-7.789063 2-2.058594 4.953125-2.886718 7.734375-2.171875l32 8c3.914062.984375 6.484375 4.730469 5.992188 8.738281-.492188 4.007813-3.890626 7.019532-7.929688 7.023438zm0 0" fill="#f98c96"/><path d="m192 152h144v32c0 17.671875-14.328125 32-32 32h-80c-17.671875 0-32-14.328125-32-32zm0 0" fill="#cfdfe8"/><path d="m248 120h32v32h-32zm0 0" fill="#f98c96"/><path d="m160 192h-8c-4.417969 0-8-3.582031-8-8s3.582031-8 8-8h8c4.417969 0 8 3.582031 8 8s-3.582031 8-8 8zm0 0" fill="#cfdfe8"/><path d="m120 192h-8c-4.417969 0-8-3.582031-8-8s3.582031-8 8-8h8c4.417969 0 8 3.582031 8 8s-3.582031 8-8 8zm0 0" fill="#cfdfe8"/><path d="m122.761719 416h-47.425781c-4.769532 0-9.289063-2.125-12.328126-5.796875-3.039062-3.675781-4.285156-8.511719-3.390624-13.195313l28.382812-149.007812h80l-29.519531 154.992188c-1.4375 7.546874-8.035157 13.007812-15.71875 13.007812zm0 0" fill="#5b6470"/><path d="m96 392c-2.417969.003906-4.703125-1.085938-6.226562-2.964844-1.519532-1.878906-2.109376-4.34375-1.605469-6.707031l24-112c.921875-4.320313 5.175781-7.074219 9.496093-6.152344 4.320313.921875 7.074219 5.175781 6.152344 9.496094l-24 112c-.789062 3.6875-4.046875 6.324219-7.816406 6.328125zm0 0" fill="#cfdfe8"/><g fill="#5b6470"><path d="m224 152h16v24h-16zm0 0"/><path d="m256 152h16v32h-16zm0 0"/><path d="m288 152h16v24h-16zm0 0"/></g><path d="m224 0v80l24 40h32l24-40v-80zm0 0" fill="#dd3e46"/><path d="m224 40h40v16h-40zm0 0" fill="#f98c96"/></svg>