<?xml version="1.0" encoding="utf-8"?>
<!-- Generator: Adobe Illustrator 22.1.0, SVG Export Plug-In . SVG Version: 6.00 Build 0)  -->
<svg version="1.1" id="Слой_1" xmlns="http://www.w3.org/2000/svg" xmlns:xlink="http://www.w3.org/1999/xlink" x="0px" y="0px"
	 viewBox="0 0 250 100" style="enable-background:new 0 0 250 100;" xml:space="preserve">
<style type="text/css">
	.st0{fill:#00A0DE;}
	.st1{fill:#FFFFFF;}
	.st2{fill:#3D3834;}
	.st3{fill:#434342;}
</style>
<g>
	<g>
		<polygon class="st0" points="9.4,71.6 4.7,71.5 4.9,71.6 8.8,71.6 		"/>
	</g>
</g>
<g>
	<g>
		<polygon class="st0" points="106.4,89.7 109.8,78.4 113.2,89.7 117.9,89.7 112.2,72.5 112,72.1 107.6,72.1 107.5,72.5 101.7,89.7 
					"/>
	</g>
</g>
<g>
	<g>
		<line class="st0" x1="44.6" y1="75.2" x2="44.5" y2="75.2"/>
	</g>
</g>
<g>
	<g>
		<polygon class="st0" points="80,72.1 74.8,72.1 68.8,77.9 68.8,72.1 64.4,72.1 64.4,89.7 68.8,89.7 68.8,84 70,82.6 75.8,89.7 
			81.3,89.7 73,79.3 		"/>
	</g>
</g>
<g>
	<g>
		<path class="st0" d="M35,72l0,1.7c0,0,0,0-0.1-0.1c-1.7-2.1-4.7-2.1-4.7-2.1c-0.1,0-0.1,0-0.2,0c-4.1,0-7.2,2.7-8.4,6.4
			c-0.3,0.9-0.4,1.8-0.4,2.8c0,0.1,0,0.2,0,0.4c0.2,4.9,4.1,8.8,8.9,8.9c1.2,0,3-0.3,4.1-1.3v0c0,0,0.4-0.3,0.7-0.8l0,1.7h4.6v-8.8
			V72H35z M30.3,71.6L30.3,71.6C30.3,71.6,30.3,71.6,30.3,71.6C30.3,71.6,30.3,71.6,30.3,71.6z M35,83c0,0.1-0.1,0.2-0.1,0.3
			c-0.9,1.7-2.6,2.8-4.5,2.8c-1.2,0-2.2-0.4-3.1-1.1c-1-0.9-1.7-2.2-1.8-3.7c0-0.1,0-0.2,0-0.3c0-0.9,0.2-1.8,0.6-2.6
			c0.9-1.7,2.6-2.8,4.5-2.8c1.2,0,2.2,0.4,3.1,1.1c0.6,0.5,1,1.1,1.3,1.8c0.3,0.6,0.4,1.2,0.5,1.9c0,0.1,0,0.2,0,0.3
			C35.5,81.6,35.3,82.3,35,83z"/>
	</g>
</g>
<g>
	<g>
		<path class="st0" d="M94.2,72.2l0,1.7c0,0,0,0-0.1-0.1c-1.7-2-4.7-2.1-4.7-2.1c-0.1,0-0.1,0-0.1,0c-4.1,0-7.2,2.7-8.3,6.4
			c-0.3,0.9-0.4,1.8-0.4,2.8c0,0.1,0,0.2,0,0.4c0.2,4.9,4.1,8.8,8.9,8.9c1.2,0,3-0.3,4-1.3v0c0,0,0.4-0.3,0.7-0.8l0,1.7h4.6v-8.8
			v-8.8H94.2z M89.5,71.7L89.5,71.7C89.5,71.7,89.5,71.7,89.5,71.7C89.5,71.7,89.5,71.7,89.5,71.7z M94.2,83.1
			c0,0.1-0.1,0.2-0.1,0.3c-0.9,1.6-2.5,2.8-4.5,2.8c-1.2,0-2.2-0.4-3.1-1.1c-1-0.9-1.7-2.2-1.8-3.7c0-0.1,0-0.2,0-0.3
			c0-0.9,0.2-1.8,0.6-2.6c0.9-1.6,2.5-2.8,4.5-2.8c1.2,0,2.2,0.4,3.1,1.1c0.5,0.5,1,1.1,1.3,1.8c0.3,0.6,0.4,1.2,0.5,1.9
			c0,0.1,0,0.2,0,0.3C94.7,81.7,94.6,82.4,94.2,83.1z"/>
	</g>
</g>
<path class="st0" d="M18.6,80.2c-0.1-2.8-1.6-5.4-3.9-6.9c-2.3-1.9-5.7-1.8-5.7-1.8l-0.6,0H4.6H4.4v0v-5.5h10.9v-4.4H0v0.2h0v4.2
	v23.8h0.9h8.3c0.2,0,0.4,0,0.6,0v0c3.9-0.3,7.2-2.8,8.3-6.3c0.3-0.9,0.4-1.8,0.4-2.8C18.6,80.5,18.6,80.3,18.6,80.2z M12.9,82.8
	c-0.7,1.2-2,2.1-3.5,2.4h-5v-9.3l3.8,0h1.2c0.1,0,0.3,0,0.4,0.1c0.7,0.2,1.4,0.5,1.9,0.8c1.1,0.8,1.8,2,1.9,3.4c0,0.1,0,0.2,0,0.3
	C13.6,81.3,13.4,82.1,12.9,82.8z"/>
<path class="st0" d="M60.7,89.1c0,0,0-0.1,0-0.1c0,0,0-0.1,0-0.1c0,0,0,0,0,0c0,0,0-0.1,0-0.1h0c-0.1-1-0.2-2.8-0.2-4.4v-3.8v-8.8
	h-3.6h-1h0v2.1v1.4v0.9v2.2v2.4c0,0,0,0.2,0,0.4c0,0,0,0,0,0c0,0,0,0,0,0c0,0.7-0.2,2-0.8,2.9c-0.7,1-1.9,1.7-3.3,1.7
	c-0.1,0-0.2,0-0.3,0c-0.7-0.1-1.4-0.3-1.9-0.7c-0.8-0.5-1.3-1.3-1.6-2.2c0,0,0,0,0,0c-0.1-0.3-0.2-1-0.2-1.5l0,0c0,0,0,0,0,0
	c0-0.3,0-0.4,0-0.4h0c-0.3-3.5,0-9,0-9l-0.1,0H43c0,1.7,0,8.2,0,9.3c0,1,0.2,2.7,0.7,4.2c0.2,0.6,0.6,1.2,1,1.8v0
	c0.1,0.1,0.2,0.2,0.3,0.3c0.1,0.1,0.2,0.2,0.3,0.4c0.6,0.6,1.2,1.1,2.1,1.4c0,0,0,0,0.1,0c0.3,0.2,1.5,0.6,3.2,0.6
	c0.2,0,0.4,0,0.6,0c0,0,3,0,4.8-2.4c0,0.7,0.2,1.7,0.5,2h4.3C60.8,89.3,60.8,89.2,60.7,89.1z"/>
<g>
	<g>
		<g>
			<polygon class="st1" points="213.2,82.1 213.2,82.1 213.2,82.1 			"/>
		</g>
	</g>
	<g>
		<g>
			<path class="st1" d="M211.2,81.8"/>
		</g>
	</g>
	<path class="st2" d="M246,83.6c-0.9,1.6-2.5,2.7-4.3,2.7c-2.6,0-4.8-2.2-4.9-5l0-0.1c0-0.1,0-0.2,0-0.2c0-0.9,0.2-1.8,0.6-2.6
		c0.9-1.7,2.5-2.8,4.3-2.8c1.8,0,3.4,1,4.3,2.7l0.1,0.1l3.9-1.6l-0.1-0.2c-1.5-3.4-4.8-5.6-8.4-5.6c-4.1,0-7.6,2.7-8.8,6.8
		c-0.3,1-0.4,1.9-0.4,3c0,0.1,0,0.2,0,0.4c0.2,5.2,4.3,9.3,9.3,9.3c3.5,0,6.7-2.1,8.3-5.4l0.1-0.2l-3.8-1.6L246,83.6z"/>
	<g>
		<g>
			<path class="st3" d="M169,71.2C169,71.2,169,71.2,169,71.2C169,71.2,169,71.2,169,71.2z"/>
		</g>
	</g>
	<path class="st2" d="M166,72.9c-0.2-0.1-0.3-0.2-0.5-0.4c0,0-0.1-0.1-0.1-0.1c-0.1-0.1-0.2-0.1-0.3-0.2l-0.1-0.1
		c-0.2-0.1-0.4-0.2-0.5-0.3c-0.1,0-0.1-0.1-0.2-0.1c-0.1,0-0.2-0.1-0.3-0.1c-0.1,0-0.1,0-0.2-0.1l0,0c-0.2-0.1-0.3-0.1-0.5-0.1
		c-0.1,0-0.2-0.1-0.3-0.1c-0.1,0-0.2,0-0.3-0.1c-0.1,0-0.3-0.1-0.4-0.1c-0.1,0-0.2,0-0.3,0c-0.1,0-0.3,0-0.4-0.1c-0.1,0-0.1,0-0.2,0
		c-0.2,0-0.4,0-0.6,0l0,0c-0.2,0-0.5,0-0.7,0l-0.1,0c-0.2,0-0.4,0-0.6,0.1l-0.1,0c-0.2,0-0.4,0.1-0.6,0.1l-0.1,0
		c-0.2,0.1-0.4,0.1-0.6,0.2l-0.1,0c-0.2,0.1-0.4,0.2-0.7,0.3c-2,0.9-3.7,2.5-4.7,4.6l-0.1,0.2l0,0c-0.2,0.4-0.3,0.8-0.5,1.2
		c-0.3,1-0.4,1.9-0.4,2.9c0,0.1,0,0.3,0,0.4c0,0.8,0.2,1.6,0.4,2.4l0,0.2c0.1,0.4,0.3,0.7,0.4,1.2c0,0.1,0.1,0.1,0.1,0.2l0.1,0.2
		c0.2,0.4,0.4,0.7,0.6,1.1l0.1,0.1c0.2,0.3,0.5,0.7,0.8,1l0.1,0.1c0.1,0.1,0.2,0.2,0.3,0.3l0,0c0.2,0.2,0.4,0.3,0.6,0.5
		c0,0,0.1,0.1,0.1,0.1c0.1,0.1,0.2,0.2,0.3,0.2l0.1,0.1c0.2,0.1,0.4,0.3,0.6,0.4l0.1,0.1c0.1,0.1,0.2,0.1,0.3,0.2l0.1,0.1
		c0.2,0.1,0.4,0.2,0.6,0.3c0.1,0,0.1,0.1,0.2,0.1c0.1,0,0.2,0.1,0.3,0.1c0.1,0,0.2,0.1,0.2,0.1c0.2,0.1,0.3,0.1,0.5,0.1
		c0.1,0,0.2,0.1,0.3,0.1c0.1,0,0.2,0,0.3,0.1c0.1,0,0.3,0.1,0.4,0.1c0.1,0,0.2,0,0.3,0c0.1,0,0.3,0,0.4,0.1c0.1,0,0.1,0,0.2,0
		c0.2,0,0.4,0,0.6,0h0c0.2,0,0.5,0,0.7,0l0.1,0c0.2,0,0.4,0,0.6-0.1l0.1,0c0.2,0,0.4-0.1,0.6-0.1l0.1,0c0.2-0.1,0.4-0.1,0.6-0.2
		l0.1,0c0.2-0.1,0.4-0.2,0.6-0.2l0,0c2-0.9,3.7-2.5,4.6-4.6l0.1-0.2l-4.2-1.8l-0.1,0.1c-0.9,1.6-2.5,2.6-4.3,2.6
		c-0.7,0-1.3-0.1-1.9-0.4c-1.5-0.8-2.3-1.8-2.6-3.2h13.3l0-0.2C169.5,80.8,169.7,75.7,166,72.9z M165.1,79h-8.8
		c0.1-0.2,0.2-0.4,0.2-0.5c0.9-1.7,2.5-2.8,4.3-2.8c0.7,0,1.3,0.1,1.9,0.4C163.9,76.7,164.7,77.7,165.1,79z"/>
	<path class="st2" d="M145.4,80.9l-0.1,0.1c-1.5,2.8-4.1,4.4-6.8,4.4c-4.5,0-8.1-4.3-8.1-9.5c0-5.3,3.6-9.5,8.1-9.5
		c3.3,0,6.2,2.3,7.5,5.9l0.1,0.2l4.7-2l-0.1-0.2c-2.1-5.4-6.8-9-12.1-9c-7.2,0-13.1,6.5-13.1,14.6c0,8,5.9,14.6,13.1,14.6
		c4.6,0,9-2.8,11.3-7.2l0,0l0.1-0.3l0,0l0,0L145.4,80.9z"/>
	<path class="st2" d="M190.5,78.1c-1.3-4.1-4.7-6.8-8.7-6.8l-0.1,0c0,0-0.1,0-0.2,0c0,0,0,0,0,0c0,0-2.9,0-4.7,1.9l0-1.4h-5.2v28.7
		h5.2l0-11.5c0.2,0.3,0.4,0.4,0.4,0.5l0,0c1.2,1.1,3.2,1.3,4.3,1.4c5.1-0.1,9.2-4.2,9.4-9.4c0-0.1,0-0.3,0-0.4
		C190.9,80.1,190.8,79.1,190.5,78.1z M178,77c0.9-0.7,2-1.1,3.1-1.1c1.9,0,3.6,1.1,4.5,2.8c0.4,0.8,0.6,1.7,0.6,2.6
		c0,0.1,0,0.1,0,0.2l0,0.1c-0.1,1.5-0.7,2.8-1.8,3.7c-0.9,0.7-2,1.1-3.1,1.1c-1.9,0-3.6-1.1-4.5-2.8c0-0.1-0.1-0.2-0.1-0.3
		c-0.3-0.7-0.5-1.5-0.5-2.3c0-0.1,0-0.1,0-0.2l0-0.1c0-0.7,0.2-1.3,0.5-1.9C177,78.1,177.5,77.5,178,77z"/>
	<path class="st2" d="M210.2,83.8L210.2,83.8c-0.1-1.2-0.5-2.2-1.3-3l0,0c-0.3-0.3-0.7-0.6-1.1-0.9c0.1-0.1,0.2-0.3,0.3-0.4
		c0.9-0.8,1.3-1.8,1.3-2.9c0-2.1-2.1-4.3-4.5-4.6c-0.7-0.1-1.2-0.1-1.5-0.1c-0.1,0-0.2,0-0.2,0l-9.8,0v18h4.8l2.4,0h3.7
		c2.6-0.2,4.9-1.8,5.7-4.1c0.2-0.6,0.3-1.2,0.3-1.8C210.2,84,210.2,83.9,210.2,83.8z M205.2,84.6c-0.1,0.8-0.7,1.4-1.3,1.6
		c-0.1,0-0.2,0-0.3,0.1c-0.4,0.1-1,0.1-1.3,0.1H201c-0.5,0-1,0-1.4,0h-1.3v-4.2h1.3c0.4,0,0.9,0,1.4,0l1.1,0c0.2,0,1,0,1.7,0.2l0,0
		c0,0,0.1,0,0.1,0c0.1,0,0.1,0,0.2,0.1l0,0l0,0l0,0l0,0h0l0,0c0.1,0,0.1,0,0.1,0.1c0.5,0.3,0.9,0.8,0.9,1.4l0,0.1c0,0.1,0,0.3,0,0.3
		S205.2,84.5,205.2,84.6z M204,78.3c-0.4,0.2-0.6,0.2-0.7,0.2l-0.8,0c-0.2,0-0.4,0-0.4,0l-0.4,0l-3.4,0v-3l5.1,0c0,0,0.2,0,0.5,0.1
		c0.5,0.3,0.9,0.8,0.9,1.3C204.7,77.6,204.5,78,204,78.3z"/>
	<path class="st2" d="M230.6,89.7c0-0.1-0.1-0.2-0.1-0.3c0,0,0-0.1,0-0.1l0-0.2c-0.1-1-0.2-2.9-0.2-4.3V72h-5V81c0,0,0,0.2,0,0.4
		l0,0.1c0,0.7-0.2,2-0.7,2.8c-0.7,1-1.9,1.6-3.1,1.6c-0.1,0-0.2,0-0.3,0c-0.7-0.1-1.3-0.3-1.8-0.7c-0.7-0.5-1.3-1.3-1.5-2.1l0,0
		c-0.1-0.2-0.2-0.7-0.2-1.4l0,0c0-0.1,0-0.3,0-0.3l0,0l0-0.1c-0.2-3.5,0-8.9,0-9l0-0.2h-4.9l0,0.2c0,3,0,8.3,0,9.3
		c0,1.1,0.2,2.8,0.7,4.3c0.3,0.7,0.6,1.3,1,1.8c0.1,0.1,0.2,0.2,0.3,0.4c0.1,0.1,0.2,0.2,0.3,0.4c0.6,0.6,1.3,1.1,2.2,1.5l0,0
		c0.4,0.2,1.5,0.6,3.2,0.6h0.1c0.2,0,0.4,0,0.6,0c0.1,0,2.8,0,4.6-2.1c0.1,0.8,0.3,1.4,0.5,1.7l0.1,0.1h4.6L230.6,89.7z"/>
</g>
<path class="st0" d="M54.6,67L54.6,67L54.6,67c-0.6,0.8-1.6,1.3-2.7,1.4c-1.2,0-2.3-0.6-2.9-1.4l-2.3,1.3c0.9,2,3,3.5,5.4,3.4
	c2.2-0.1,4.1-1.4,5-3.3L54.6,67z"/>
<g>
	<g>
		<g>
			<path class="st0" d="M142.3,55.1h-34.1c-1.1,0-2-0.9-2-2c0-1.1,0.9-2,2-2h34.1c1.1,0,2,0.9,2,2C144.4,54.2,143.5,55.1,142.3,55.1
				z"/>
		</g>
	</g>
	<g>
		<path class="st0" d="M144.4,3.8c0,0.6-0.4,1-1,1h-2.1c-0.6,0-1-0.4-1-1V1.8c0-0.6,0.4-1,1-1h2.1c0.6,0,1,0.4,1,1V3.8z"/>
	</g>
	<g>
		<path class="st0" d="M110.3,3.8c0,0.5-0.4,1-1,1h-2.1c-0.5,0-1-0.4-1-1V1.8c0-0.5,0.4-1,1-1h2.1c0.5,0,1,0.4,1,1V3.8z"/>
	</g>
	<g>
		<path class="st0" d="M108.2,33.3c-1.1,0-2-0.9-2-2V8.4c0-1.1,0.9-2,2-2c1.1,0,2,0.9,2,2v22.8C110.3,32.3,109.4,33.3,108.2,33.3z"
			/>
	</g>
	<g>
		<path class="st0" d="M142.4,33.3c-1.1,0-2-0.9-2-2V8.4c0-1.1,0.9-2,2-2s2,0.9,2,2v22.8C144.4,32.3,143.5,33.3,142.4,33.3z"/>
	</g>
	<g>
		<path class="st0" d="M136.7,4.8h-22.8c-1.1,0-2-0.9-2-2c0-1.1,0.9-2,2-2h22.8c1.1,0,2,0.9,2,2C138.7,3.9,137.8,4.8,136.7,4.8z"/>
	</g>
	<g>
		<path class="st0" d="M144.4,35.8c0-0.5-0.4-1-1-1h-2.1c-0.5,0-1,0.4-1,1v2.1c0,0.5,0.4,1,1,1h2.1c0.5,0,1-0.4,1-1V35.8z"/>
	</g>
	<g>
		<path class="st0" d="M110.3,35.8c0-0.6-0.4-1-1-1h-2.1c-0.6,0-1,0.4-1,1v2.1c0,0.6,0.4,1,1,1h2.1c0.6,0,1-0.4,1-1V35.8z"/>
	</g>
	<g>
		<path class="st0" d="M136.7,34.8h-22.8c-1.1,0-2,0.9-2,2c0,1.1,0.9,2,2,2h22.8c1.1,0,2-0.9,2-2C138.7,35.7,137.8,34.8,136.7,34.8z
			"/>
	</g>
	<g>
		<g>
			<path class="st0" d="M136.8,33.1c-0.5,0-1-0.2-1.3-0.6l-23.1-23c-0.7-0.7-0.8-2,0-2.7c0.7-0.8,1.9-0.8,2.7,0l23.1,23
				c0.7,0.7,0.8,2,0,2.7C137.8,32.9,137.3,33.1,136.8,33.1z"/>
		</g>
		<g>
			<path class="st0" d="M113.8,33.1c-0.5,0-1-0.2-1.4-0.6c-0.7-0.8-0.7-2,0-2.7l23.1-23c0.8-0.7,2-0.7,2.7,0c0.7,0.8,0.7,2,0,2.7
				l-23.1,23C114.7,33,114.2,33.1,113.8,33.1z"/>
		</g>
	</g>
</g>
</svg>
