<?xml version="1.0" encoding="iso-8859-1"?>
<!-- Generator: Adobe Illustrator 19.0.0, SVG Export Plug-In . SVG Version: 6.00 Build 0)  -->
<svg version="1.1" id="Capa_1" xmlns="http://www.w3.org/2000/svg" xmlns:xlink="http://www.w3.org/1999/xlink" x="0px" y="0px"
	 viewBox="0 0 480.106 480.106" style="enable-background:new 0 0 480.106 480.106;" xml:space="preserve">
<g>
	<path style="fill:#D14343;" d="M104.053,136.106c-4.418-0.001-7.999-3.583-7.998-8.002c0-2.121,0.843-4.155,2.342-5.654l64-64
		c3.124-3.123,8.188-3.123,11.312,0l40.664,40.664l50.768-87.008c1.462-2.576,4.24-4.119,7.2-4c2.938,0.092,5.589,1.787,6.904,4.416
		l27.032,54.072l64.152-64.152c3.07-3.178,8.134-3.266,11.312-0.196s3.266,8.134,0.196,11.312c-0.064,0.067-0.13,0.132-0.196,0.196
		l-72,72c-1.809,1.832-4.397,2.668-6.936,2.24c-2.541-0.41-4.729-2.018-5.88-4.32l-25.416-50.768l-48.544,83.2
		c-1.251,2.144-3.426,3.587-5.888,3.904c-2.457,0.295-4.915-0.544-6.68-2.28l-42.344-42.312l-58.344,58.344
		C108.209,135.263,106.175,136.106,104.053,136.106z"/>
	<path style="fill:#D14343;" d="M376.053,56.106c-4.418,0-8-3.582-8-8v-32h-32c-4.418,0-8-3.582-8-8s3.582-8,8-8h40
		c4.418,0,8,3.582,8,8v40C384.053,52.524,380.471,56.106,376.053,56.106z"/>
</g>
<g>
	<path style="fill:#4091DB;" d="M128.053,144.106h32v112h-32V144.106z"/>
	<path style="fill:#4091DB;" d="M192.053,160.106h32v96h-32V160.106z"/>
	<path style="fill:#4091DB;" d="M256.053,200.106h32v56h-32V200.106z"/>
	<path style="fill:#4091DB;" d="M320.053,224.106h32v32h-32V224.106z"/>
</g>
<g>
	<path style="fill:#6D6C6B;" d="M432.053,232.106c-4.418,0-8-3.582-8-8V207.45c0.168-41.83-14.083-82.44-40.352-114.992
		c-2.766-3.446-2.214-8.482,1.232-11.248c3.446-2.766,8.482-2.214,11.248,1.232c28.362,35.497,43.831,79.572,43.872,125.008v16.656
		C440.053,228.524,436.471,232.106,432.053,232.106L432.053,232.106z"/>
	<path style="fill:#6D6C6B;" d="M48.053,232.106c-4.418,0-8-3.582-8-8V207.45C40.526,103.629,119.977,17.244,223.397,8.106
		c4.418-0.362,8.294,2.926,8.656,7.344c0.362,4.418-2.926,8.294-7.344,8.656C129.588,32.515,56.508,111.959,56.053,207.45v16.656
		C56.053,228.524,52.471,232.106,48.053,232.106L48.053,232.106z"/>
</g>
<path style="fill:#6D5011;" d="M374.693,160.106c0-6.478-2.678-12.669-7.4-17.104c-4.162-3.913-9.543-6.277-15.24-6.696V121.85
	l14.144,3.376l3.712-15.568l-17.856-4.256V88.106h-16v16h-5.84c-6.469-0.032-12.699,2.436-17.392,6.888
	c-9.448,8.869-9.918,23.718-1.049,33.167c0.339,0.361,0.689,0.711,1.049,1.049c4.692,4.454,10.923,6.925,17.392,6.896h5.84v15.944
	c-0.589-0.01-1.176-0.077-1.752-0.2l-20.392-4.864l-3.712,15.568l20.424,4.864c1.783,0.401,3.604,0.613,5.432,0.632v16.056h16v-16.2
	c5.682-0.425,11.047-2.786,15.2-6.688C371.991,172.787,374.684,166.593,374.693,160.106L374.693,160.106z M330.213,136.106
	c-2.373,0.022-4.665-0.869-6.4-2.488c-3.046-2.771-3.27-7.486-0.499-10.533c0.159-0.174,0.325-0.341,0.499-0.499
	c1.738-1.614,4.028-2.501,6.4-2.48h5.84v16H330.213z M356.253,165.626c-1.192,1.05-2.641,1.766-4.2,2.072v-15.2
	c1.56,0.309,3.009,1.027,4.2,2.08c3.046,2.771,3.27,7.486,0.499,10.533c-0.159,0.174-0.325,0.341-0.499,0.499V165.626z"/>
<path style="fill:#F4D8C3;" d="M432.053,208.106c-13.255,0-24,10.745-24,24v46.232c-9.76-8.89-24.879-8.184-33.769,1.576
	c-4.032,4.426-6.255,10.205-6.231,16.192v40l-38.544,22.024c-20.687,11.822-33.455,33.821-33.456,57.648v56.328h64v-32
	l31.328-20.888c38.729-25.783,62.699-68.617,64.416-115.112h0.256v-72C456.053,218.851,445.308,208.106,432.053,208.106
	L432.053,208.106z"/>
<g>
	<path style="fill:#DDB9A2;" d="M344.053,472.106h16v-32l31.328-20.888c38.729-25.783,62.699-68.617,64.416-115.112h0.256v-72
		c0-13.255-10.745-24-24-24c5.262,10.521,8.001,22.124,8,33.888v49.6c0,8.327-0.822,16.634-2.456,24.8l-1.248,6.264
		c-2.841,14.204-8.104,27.813-15.56,40.232c-8.409,14.023-19.462,26.279-32.544,36.088l-44.192,33.128L344.053,472.106z"/>
	<path style="fill:#DDB9A2;" d="M392.053,272.106c-2.686,0.03-5.347,0.514-7.872,1.432c9.503,3.4,15.851,12.395,15.872,22.488v40.08
		l16,0.08v-40.08C416.053,282.851,405.308,272.106,392.053,272.106z"/>
</g>
<path style="fill:#FFF8E3;" d="M400.053,280.106c8.837,0,16,7.163,16,16v8l0,0h-32l0,0v-8
	C384.053,287.27,391.217,280.106,400.053,280.106z"/>
<path style="fill:#F4D8C3;" d="M48.053,208.106c13.255,0,24,10.745,24,24v46.232c9.76-8.89,24.879-8.184,33.769,1.576
	c4.032,4.426,6.255,10.205,6.231,16.192v40l38.544,22.024c20.687,11.822,33.455,33.821,33.456,57.648v56.328h-64v-32l-31.328-20.888
	c-38.729-25.783-62.699-68.617-64.416-115.112h-0.256v-72C24.053,218.851,34.798,208.106,48.053,208.106z"/>
<g>
	<path style="fill:#DDB9A2;" d="M136.053,472.106h-16v-32l-31.328-20.888c-38.729-25.783-62.699-68.617-64.416-115.112h-0.256v-72
		c0-13.255,10.745-24,24-24c-5.262,10.521-8.001,22.124-8,33.888v49.6c0,8.327,0.822,16.634,2.456,24.8l1.248,6.264
		c2.841,14.204,8.104,27.813,15.56,40.232c8.409,14.023,19.462,26.279,32.544,36.088l44.192,33.128V472.106z"/>
	<path style="fill:#DDB9A2;" d="M88.053,272.106c2.686,0.03,5.347,0.514,7.872,1.432c-9.503,3.4-15.851,12.395-15.872,22.488v40.08
		l-16,0.08v-40.08C64.053,282.851,74.798,272.106,88.053,272.106z"/>
</g>
<path style="fill:#FFF8E3;" d="M96.053,304.106h-32l0,0v-8c0-8.837,7.163-16,16-16s16,7.163,16,16V304.106L96.053,304.106z"/>
<path d="M173.709,58.45c-3.124-3.123-8.188-3.123-11.312,0l-64,64c-3.178,3.069-3.266,8.134-0.197,11.312s8.134,3.266,11.312,0.197
	c0.067-0.064,0.132-0.13,0.197-0.197l58.344-58.344l42.344,42.344c1.765,1.736,4.223,2.575,6.68,2.28
	c2.462-0.317,4.637-1.76,5.888-3.904l48.544-83.232l25.344,50.776c1.151,2.302,3.339,3.91,5.88,4.32
	c2.539,0.428,5.127-0.408,6.936-2.24l58.384-58.344v20.688c0,4.418,3.582,8,8,8s8-3.582,8-8v-40
	c-0.005-1.049-0.214-2.087-0.616-3.056c-1.236-2.989-4.15-4.94-7.384-4.944h-40c-4.418,0-8,3.582-8,8s3.582,8,8,8h20.688
	l-50.496,50.496L279.253,12.53c-1.32-2.644-3.99-4.345-6.944-4.424c-2.96-0.119-5.738,1.424-7.2,4l-50.736,87.008L173.709,58.45z"/>
<path d="M128.053,136.106c-4.418,0-8,3.582-8,8v112c0,4.418,3.582,8,8,8h32c4.418,0,8-3.582,8-8v-112c0-4.418-3.582-8-8-8H128.053z
	 M152.053,248.106h-16v-96h16V248.106z"/>
<path d="M224.053,152.106h-32c-4.418,0-8,3.582-8,8v96c0,4.418,3.582,8,8,8h32c4.418,0,8-3.582,8-8v-96
	C232.053,155.688,228.471,152.106,224.053,152.106z M216.053,248.106h-16v-80h16V248.106z"/>
<path d="M296.053,256.106v-56c0-4.418-3.582-8-8-8h-32c-4.418,0-8,3.582-8,8v56c0,4.418,3.582,8,8,8h32
	C292.471,264.106,296.053,260.524,296.053,256.106z M280.053,248.106h-16v-40h16V248.106z"/>
<path d="M320.053,216.106c-4.418,0-8,3.582-8,8v32c0,4.418,3.582,8,8,8h32c4.418,0,8-3.582,8-8v-32c0-4.418-3.582-8-8-8H320.053z
	 M344.053,248.106h-16v-16h16V248.106z"/>
<path d="M154.565,351.186l-34.512-19.72v-35.36c0-17.673-14.327-32-32-32c-2.704,0.034-5.393,0.416-8,1.136v-33.136
	c-0.046-14.432-9.761-27.043-23.704-30.768c3.475-93.048,75.613-168.988,168.36-177.232c4.418-0.362,7.706-4.238,7.344-8.656
	c-0.362-4.418-4.238-7.706-8.656-7.344C122.379,17.048,43.833,99.822,40.197,201.17c-14.169,3.588-24.105,16.32-24.144,30.936v66.28
	c0.004,51.23,25.608,99.069,68.232,127.488l27.768,18.512v27.72c0,4.418,3.582,8,8,8s8-3.582,8-8v-32
	c0-2.674-1.335-5.172-3.56-6.656l-31.336-20.888c-38.178-25.448-61.108-68.294-61.104-114.176v-66.28
	c0.004-8.837,7.171-15.997,16.008-15.992c8.83,0.004,15.988,7.162,15.992,15.992v43.056c-5.127,5.775-7.971,13.222-8,20.944v32
	c0,4.418,3.582,8,8,8s8-3.582,8-8v-32c0-8.837,7.163-16,16-16s16,7.163,16,16v40c-0.006,2.864,1.52,5.512,4,6.944l38.544,22.024
	c18.207,10.39,29.449,29.741,29.456,50.704v56.328c0,4.418,3.582,8,8,8s8-3.582,8-8v-56.328
	C192.051,389.081,177.745,364.431,154.565,351.186L154.565,351.186z"/>
<path d="M439.781,201.162c-1.338-43.242-16.633-84.89-43.6-118.72c-2.766-3.446-7.802-3.998-11.248-1.232
	c-3.446,2.766-3.998,7.802-1.232,11.248c24.903,30.931,38.987,69.169,40.096,108.864c-13.965,3.712-23.701,16.334-23.744,30.784
	v33.136c-2.607-0.72-5.296-1.102-8-1.136c-17.673,0-32,14.327-32,32v35.36l-34.52,19.72c-23.177,13.247-37.48,37.896-37.48,64.592
	v56.328c0,4.418,3.582,8,8,8s8-3.582,8-8v-56.328c0-20.956,11.229-40.306,29.424-50.704l38.576-22.024
	c2.48-1.432,4.006-4.08,4-6.944v-40c0-8.837,7.163-16,16-16s16,7.163,16,16v32c0,4.418,3.582,8,8,8s8-3.582,8-8v-32
	c-0.029-7.722-2.873-15.169-8-20.944v-43.056c0-8.837,7.163-16,16-16s16,7.163,16,16v66.28
	c0.004,45.882-22.926,88.728-61.104,114.176l-31.336,20.888c-2.225,1.484-3.56,3.982-3.56,6.656v32c0,4.418,3.582,8,8,8s8-3.582,8-8
	v-27.72l27.768-18.512c42.624-28.419,68.228-76.258,68.232-127.488v-66.28C464.003,217.45,454.003,204.701,439.781,201.162z"/>
<path d="M374.693,160.106c0-6.478-2.678-12.669-7.4-17.104c-4.162-3.913-9.543-6.277-15.24-6.696V121.85l14.144,3.376l3.712-15.568
	l-17.856-4.256V88.106h-16v16h-5.84c-6.469-0.032-12.699,2.436-17.392,6.888c-9.448,8.869-9.918,23.718-1.049,33.167
	c0.339,0.361,0.689,0.711,1.049,1.049c4.692,4.454,10.923,6.925,17.392,6.896h5.84v15.944c-0.589-0.01-1.176-0.077-1.752-0.2
	l-20.392-4.864l-3.712,15.568l20.424,4.864c1.783,0.401,3.604,0.613,5.432,0.632v16.056h16v-16.2
	c5.682-0.425,11.047-2.786,15.2-6.688C371.991,172.787,374.684,166.593,374.693,160.106L374.693,160.106z M330.213,136.106
	c-2.373,0.022-4.665-0.869-6.4-2.488c-3.046-2.771-3.27-7.486-0.499-10.533c0.159-0.174,0.325-0.341,0.499-0.499
	c1.738-1.614,4.028-2.501,6.4-2.48h5.84v16H330.213z M356.253,165.626c-1.192,1.05-2.641,1.766-4.2,2.072v-15.2
	c1.56,0.309,3.009,1.027,4.2,2.08c3.046,2.771,3.27,7.486,0.499,10.533c-0.159,0.174-0.325,0.341-0.499,0.499V165.626z"/>
<g>
</g>
<g>
</g>
<g>
</g>
<g>
</g>
<g>
</g>
<g>
</g>
<g>
</g>
<g>
</g>
<g>
</g>
<g>
</g>
<g>
</g>
<g>
</g>
<g>
</g>
<g>
</g>
<g>
</g>
</svg>
